# This file uses centimeters as units for non-parametric coordinates.

mtllib Crystal.mtl
g default
v -0.500000 -1.278074 -0.866025
v 0.500000 -1.278074 -0.866026
v 1.000000 -1.278074 0.000000
v 0.500000 -1.278074 0.866025
v -0.500000 -1.278074 0.866025
v -1.000000 -1.278074 0.000000
v 0.000000 -2.567563 0.000000
v -1.000000 -0.106261 0.000000
v -0.500000 -0.106261 -0.866025
v -0.500000 -0.106261 0.866026
v 0.500000 -0.106261 0.866026
v 1.000000 -0.106261 0.000000
v 0.500000 -0.106261 -0.866025
v 0.500000 1.170654 -0.866025
v -0.500000 1.170654 -0.866026
v -1.000000 1.170654 0.000000
v -0.500000 1.170654 0.866025
v 0.500000 1.170654 0.866025
v 1.000000 1.170654 0.000000
v 0.000000 2.460143 0.000000
v 1.000000 -0.001159 0.000000
v 0.500000 -0.001159 -0.866025
v 0.500000 -0.001159 0.866026
v -0.500000 -0.001159 0.866026
v -1.000000 -0.001159 0.000000
v -0.500000 -0.001159 -0.866025
vt 0.001992 0.670435
vt 0.091425 0.901079
vt 0.180857 0.670435
vt 0.497141 0.232443
vt 0.342239 0.001799
vt 0.342239 0.232443
vt 0.187337 0.232443
vt 0.683882 0.232443
vt 0.594449 0.001799
vt 0.505017 0.232443
vt 0.998008 0.232443
vt 0.843106 0.001799
vt 0.843106 0.232443
vt 0.688205 0.232443
vt 0.688205 0.442039
vt 0.688205 0.460838
vt 0.688205 0.670434
vt 0.843106 0.670434
vt 0.843106 0.460838
vt 0.843106 0.442039
vt 0.998008 0.670434
vt 0.998008 0.460838
vt 0.998008 0.442039
vt 0.505017 0.442039
vt 0.505017 0.460838
vt 0.505017 0.670434
vt 0.683882 0.670434
vt 0.683882 0.460838
vt 0.683882 0.442039
vt 0.187337 0.442039
vt 0.187337 0.460838
vt 0.187337 0.670434
vt 0.342239 0.670434
vt 0.342239 0.460838
vt 0.342239 0.442039
vt 0.497141 0.670434
vt 0.497140 0.460838
vt 0.497141 0.442039
vt 0.180857 0.460838
vt 0.180857 0.442039
vt 0.180857 0.232443
vt 0.001992 0.232443
vt 0.001992 0.442039
vt 0.001992 0.460838
vt 0.091425 0.001799
vt 0.843106 0.901079
vt 0.594449 0.901079
vt 0.342239 0.901079
vn 0.000000 -0.557534 -0.830154
vn 0.000000 -0.557534 -0.830154
vn 0.000000 -0.557534 -0.830154
vn 0.718934 -0.557534 -0.415077
vn 0.718934 -0.557534 -0.415077
vn 0.718934 -0.557534 -0.415077
vn 0.718934 -0.557534 0.415077
vn 0.718934 -0.557534 0.415077
vn 0.718934 -0.557534 0.415077
vn 0.000000 -0.557534 0.830154
vn 0.000000 -0.557534 0.830154
vn 0.000000 -0.557534 0.830154
vn -0.718935 -0.557534 0.415077
vn -0.718935 -0.557534 0.415077
vn -0.718934 -0.557534 0.415077
vn -0.718934 -0.557534 -0.415077
vn -0.718934 -0.557534 -0.415077
vn -0.718934 -0.557534 -0.415077
vn -0.866026 0.000000 -0.500000
vn -0.866025 0.000000 -0.500000
vn -0.866025 0.000000 -0.500000
vn -0.866026 0.000000 -0.500000
vn -0.866026 0.000000 -0.500000
vn -0.866025 0.000000 -0.500000
vn -0.866025 0.000000 -0.500000
vn -0.866026 0.000000 -0.500000
vn -0.866026 0.000000 0.500000
vn -0.866025 0.000000 0.500000
vn -0.866025 0.000000 0.500000
vn -0.866026 0.000000 0.500000
vn -0.866026 0.000000 0.500000
vn -0.866025 0.000000 0.500000
vn -0.866025 0.000000 0.500000
vn -0.866026 0.000000 0.500000
vn 0.000000 0.000000 1.000000
vn 0.000000 0.000000 1.000000
vn 0.000000 0.000000 1.000000
vn 0.000000 0.000000 1.000000
vn 0.000000 0.000000 1.000000
vn 0.000000 0.000000 1.000000
vn 0.000000 0.000000 1.000000
vn 0.000000 0.000000 1.000000
vn 0.866026 0.000000 0.500000
vn 0.866025 0.000000 0.500000
vn 0.866025 0.000000 0.500000
vn 0.866026 0.000000 0.500000
vn 0.866026 0.000000 0.500000
vn 0.866025 0.000000 0.500000
vn 0.866025 0.000000 0.500000
vn 0.866026 0.000000 0.500000
vn 0.866025 0.000000 -0.500000
vn 0.866025 0.000000 -0.500000
vn 0.866025 0.000000 -0.500000
vn 0.866025 0.000000 -0.500000
vn 0.866025 0.000000 -0.500000
vn 0.866025 0.000000 -0.500000
vn 0.866025 0.000000 -0.500000
vn 0.866025 0.000000 -0.500000
vn -0.000000 0.000000 -1.000000
vn -0.000000 0.000000 -1.000000
vn -0.000000 0.000000 -1.000000
vn -0.000000 0.000000 -1.000000
vn -0.000000 0.000000 -1.000000
vn -0.000000 0.000000 -1.000000
vn -0.000000 0.000000 -1.000000
vn -0.000000 0.000000 -1.000000
vn 0.000000 0.557535 -0.830154
vn 0.000000 0.557535 -0.830154
vn 0.000000 0.557535 -0.830153
vn -0.718934 0.557534 -0.415077
vn -0.718934 0.557534 -0.415077
vn -0.718934 0.557534 -0.415077
vn -0.718934 0.557534 0.415077
vn -0.718934 0.557534 0.415077
vn -0.718934 0.557534 0.415077
vn 0.000000 0.557535 0.830153
vn 0.000000 0.557535 0.830153
vn 0.000000 0.557535 0.830153
vn 0.718934 0.557534 0.415077
vn 0.718934 0.557534 0.415077
vn 0.718934 0.557534 0.415077
vn 0.718935 0.557535 -0.415076
vn 0.718935 0.557535 -0.415076
vn 0.718935 0.557535 -0.415076
s off
g pCone3
usemtl initialShadingGroup1
f 1/1/1 2/3/2 7/2/3
f 2/4/4 3/6/5 7/5/6
f 3/6/7 4/7/8 7/5/9
f 4/8/10 5/10/11 7/9/12
f 5/11/13 6/13/14 7/12/15
f 6/13/16 1/14/17 7/12/18
f 9/15/19 1/14/20 6/13/21 8/20/22 25/19/23 16/18/24 15/17/25 26/16/26
f 8/20/27 6/13/28 5/11/29 10/23/30 24/22/31 17/21/32 16/18/33 25/19/34
f 10/24/35 5/10/36 4/8/37 11/29/38 23/28/39 18/27/40 17/26/41 24/25/42
f 11/30/43 4/7/44 3/6/45 12/35/46 21/34/47 19/33/48 18/32/49 23/31/50
f 12/35/51 3/6/52 2/4/53 13/38/54 22/37/55 14/36/56 19/33/57 21/34/58
f 13/39/59 2/3/60 1/1/61 9/44/62 26/43/63 15/42/64 14/41/65 22/40/66
f 14/41/67 15/42/68 20/45/69
f 15/17/70 16/18/71 20/46/72
f 16/18/73 17/21/74 20/46/75
f 17/26/76 18/27/77 20/47/78
f 18/32/79 19/33/80 20/48/81
f 19/33/82 14/36/83 20/48/84
g default
v -0.500000 -1.278074 -0.866025
v 0.500000 -1.278074 -0.866026
v 1.000000 -1.278074 0.000000
v 0.500000 -1.278074 0.866025
v -0.500000 -1.278074 0.866025
v -1.000000 -1.278074 0.000000
v 0.000000 -2.567563 0.000000
v -1.000000 -0.106261 0.000000
v -0.500000 -0.106261 -0.866025
v -0.500000 -0.106261 0.866026
v 0.500000 -0.106261 0.866026
v 1.000000 -0.106261 0.000000
v 0.500000 -0.106261 -0.866025
v 0.500000 1.170654 -0.866025
v -0.500000 1.170654 -0.866026
v -1.000000 1.170654 0.000000
v -0.500000 1.170654 0.866025
v 0.500000 1.170654 0.866025
v 1.000000 1.170654 0.000000
v 0.000000 2.460143 0.000000
v 1.000000 -0.001159 0.000000
v 0.500000 -0.001159 -0.866025
v 0.500000 -0.001159 0.866026
v -0.500000 -0.001159 0.866026
v -1.000000 -0.001159 0.000000
v -0.500000 -0.001159 -0.866025
vt 0.001992 0.670435
vt 0.091425 0.901079
vt 0.180857 0.670435
vt 0.497141 0.232443
vt 0.342239 0.001799
vt 0.342239 0.232443
vt 0.187337 0.232443
vt 0.683882 0.232443
vt 0.594449 0.001799
vt 0.505017 0.232443
vt 0.998008 0.232443
vt 0.843106 0.001799
vt 0.843106 0.232443
vt 0.688205 0.232443
vt 0.688205 0.442039
vt 0.688205 0.460838
vt 0.688205 0.670434
vt 0.843106 0.670434
vt 0.843106 0.460838
vt 0.843106 0.442039
vt 0.998008 0.670434
vt 0.998008 0.460838
vt 0.998008 0.442039
vt 0.505017 0.442039
vt 0.505017 0.460838
vt 0.505017 0.670434
vt 0.683882 0.670434
vt 0.683882 0.460838
vt 0.683882 0.442039
vt 0.187337 0.442039
vt 0.187337 0.460838
vt 0.187337 0.670434
vt 0.342239 0.670434
vt 0.342239 0.460838
vt 0.342239 0.442039
vt 0.497141 0.670434
vt 0.497140 0.460838
vt 0.497141 0.442039
vt 0.180857 0.460838
vt 0.180857 0.442039
vt 0.180857 0.232443
vt 0.001992 0.232443
vt 0.001992 0.442039
vt 0.001992 0.460838
vt 0.091425 0.001799
vt 0.843106 0.901079
vt 0.594449 0.901079
vt 0.342239 0.901079
vn 0.000000 -0.557534 -0.830154
vn 0.000000 -0.557534 -0.830154
vn 0.000000 -0.557534 -0.830154
vn 0.718934 -0.557534 -0.415077
vn 0.718934 -0.557534 -0.415077
vn 0.718934 -0.557534 -0.415077
vn 0.718934 -0.557534 0.415077
vn 0.718934 -0.557534 0.415077
vn 0.718934 -0.557534 0.415077
vn 0.000000 -0.557534 0.830154
vn 0.000000 -0.557534 0.830154
vn 0.000000 -0.557534 0.830154
vn -0.718935 -0.557534 0.415077
vn -0.718935 -0.557534 0.415077
vn -0.718934 -0.557534 0.415077
vn -0.718934 -0.557534 -0.415077
vn -0.718934 -0.557534 -0.415077
vn -0.718934 -0.557534 -0.415077
vn -0.866026 0.000000 -0.500000
vn -0.866025 0.000000 -0.500000
vn -0.866025 0.000000 -0.500000
vn -0.866026 0.000000 -0.500000
vn -0.866026 0.000000 -0.500000
vn -0.866025 0.000000 -0.500000
vn -0.866025 0.000000 -0.500000
vn -0.866026 0.000000 -0.500000
vn -0.866026 0.000000 0.500000
vn -0.866025 0.000000 0.500000
vn -0.866025 0.000000 0.500000
vn -0.866026 0.000000 0.500000
vn -0.866026 0.000000 0.500000
vn -0.866025 0.000000 0.500000
vn -0.866025 0.000000 0.500000
vn -0.866026 0.000000 0.500000
vn 0.000000 0.000000 1.000000
vn 0.000000 0.000000 1.000000
vn 0.000000 0.000000 1.000000
vn 0.000000 0.000000 1.000000
vn 0.000000 0.000000 1.000000
vn 0.000000 0.000000 1.000000
vn 0.000000 0.000000 1.000000
vn 0.000000 0.000000 1.000000
vn 0.866026 0.000000 0.500000
vn 0.866025 0.000000 0.500000
vn 0.866025 0.000000 0.500000
vn 0.866026 0.000000 0.500000
vn 0.866026 0.000000 0.500000
vn 0.866025 0.000000 0.500000
vn 0.866025 0.000000 0.500000
vn 0.866026 0.000000 0.500000
vn 0.866025 0.000000 -0.500000
vn 0.866025 0.000000 -0.500000
vn 0.866025 0.000000 -0.500000
vn 0.866025 0.000000 -0.500000
vn 0.866025 0.000000 -0.500000
vn 0.866025 0.000000 -0.500000
vn 0.866025 0.000000 -0.500000
vn 0.866025 0.000000 -0.500000
vn -0.000000 0.000000 -1.000000
vn -0.000000 0.000000 -1.000000
vn -0.000000 0.000000 -1.000000
vn -0.000000 0.000000 -1.000000
vn -0.000000 0.000000 -1.000000
vn -0.000000 0.000000 -1.000000
vn -0.000000 0.000000 -1.000000
vn -0.000000 0.000000 -1.000000
vn 0.000000 0.557535 -0.830154
vn 0.000000 0.557535 -0.830154
vn 0.000000 0.557535 -0.830153
vn -0.718934 0.557534 -0.415077
vn -0.718934 0.557534 -0.415077
vn -0.718934 0.557534 -0.415077
vn -0.718934 0.557534 0.415077
vn -0.718934 0.557534 0.415077
vn -0.718934 0.557534 0.415077
vn 0.000000 0.557535 0.830153
vn 0.000000 0.557535 0.830153
vn 0.000000 0.557535 0.830153
vn 0.718934 0.557534 0.415077
vn 0.718934 0.557534 0.415077
vn 0.718934 0.557534 0.415077
vn 0.718935 0.557535 -0.415076
vn 0.718935 0.557535 -0.415076
vn 0.718935 0.557535 -0.415076
s off
g pCone3
f 27/49/85 28/51/86 33/50/87
f 28/52/88 29/54/89 33/53/90
f 29/54/91 30/55/92 33/53/93
f 30/56/94 31/58/95 33/57/96
f 31/59/97 32/61/98 33/60/99
f 32/61/100 27/62/101 33/60/102
f 35/63/103 27/62/104 32/61/105 34/68/106 51/67/107 42/66/108 41/65/109 52/64/110
f 34/68/111 32/61/112 31/59/113 36/71/114 50/70/115 43/69/116 42/66/117 51/67/118
f 36/72/119 31/58/120 30/56/121 37/77/122 49/76/123 44/75/124 43/74/125 50/73/126
f 37/78/127 30/55/128 29/54/129 38/83/130 47/82/131 45/81/132 44/80/133 49/79/134
f 38/83/135 29/54/136 28/52/137 39/86/138 48/85/139 40/84/140 45/81/141 47/82/142
f 39/87/143 28/51/144 27/49/145 35/92/146 52/91/147 41/90/148 40/89/149 48/88/150
f 40/89/151 41/90/152 46/93/153
f 41/65/154 42/66/155 46/94/156
f 42/66/157 43/69/158 46/94/159
f 43/74/160 44/75/161 46/95/162
f 44/80/163 45/81/164 46/96/165
f 45/81/166 40/84/167 46/96/168
