# This file uses centimeters as units for non-parametric coordinates.

mtllib Cardboard Box.mtl
g default
v -2.592944 5.181599 2.592944
v 2.592944 5.181599 2.592944
v -2.592944 5.181599 -2.592944
v 2.592944 5.181599 -2.592944
v -2.308752 0.504263 2.308752
v 2.308752 0.504263 2.308752
v 2.308752 0.504263 -2.308752
v -2.308752 0.504263 -2.308752
v 2.592944 3.580042 4.792945
v -2.592944 3.580042 4.792945
v 2.592944 3.788009 4.792945
v -2.592944 3.788009 4.792945
v -4.792944 3.580042 2.592944
v -4.792944 3.580042 -2.592944
v -4.792944 3.788009 2.592944
v -4.792944 3.788009 -2.592944
v -2.592944 3.788009 -4.792944
v 2.592944 3.788009 -4.792944
v 2.592944 3.580042 -4.792944
v -2.592944 3.580042 -4.792944
v 4.027816 7.119670 -2.592944
v 4.027816 7.119670 2.592944
v 4.027816 7.327637 -2.592944
v 4.027816 7.327637 2.592944
v -2.534128 -0.004289 2.534128
v -2.534128 0.054527 2.592944
v -2.592944 0.054527 2.534128
v 2.592944 0.054527 2.534128
v 2.534128 0.054527 2.592944
v 2.534128 -0.004289 2.534128
v -2.534128 0.054527 -2.592944
v -2.534128 -0.004289 -2.534128
v -2.592944 0.054527 -2.534128
v 2.592944 0.054527 -2.534128
v 2.534128 -0.004289 -2.534128
v 2.534128 0.054527 -2.592944
v -2.628077 4.951377 2.592944
v -2.592944 4.973633 2.534128
v -2.534128 4.973633 2.592944
v -2.592944 4.951377 2.628077
v -2.592944 5.015221 2.592944
v 2.628077 4.951377 2.592944
v 2.592944 5.015221 2.592944
v 2.592944 4.951377 2.628077
v 2.534128 4.973633 2.592944
v 2.592944 4.973633 2.534128
v -2.367567 5.181599 2.367567
v -2.308752 5.122783 2.308752
v 2.367567 5.181599 2.367567
v 2.308752 5.122783 2.308752
v 2.367567 5.181599 -2.367567
v 2.308752 5.122783 -2.308752
v -2.367567 5.181599 -2.367567
v -2.308752 5.122783 -2.308752
v -2.592944 4.951377 -2.628077
v -2.534128 4.973633 -2.592944
v -2.592944 4.973633 -2.534128
v -2.628077 4.951377 -2.592944
v -2.592944 5.015221 -2.592944
v 2.628077 4.951377 -2.592944
v 2.592944 4.973633 -2.534128
v 2.534128 4.973633 -2.592944
v 2.592944 4.951377 -2.628077
v 2.592944 5.015221 -2.592944
vt 2.000000 1.000000
vt 1.000000 1.000000
vt 0.000000 1.000000
vt 0.000000 1.000000
vt -1.000000 1.000000
vt 1.000000 2.000000
vt 2.000000 1.000000
vt 1.000000 1.000000
vt 0.000000 0.959898
vt 0.000000 0.959898
vt 0.000000 0.967917
vt 1.000000 0.959898
vt 0.000000 0.959898
vt 0.000000 2.040102
vt 0.000000 2.032083
vt 0.000000 2.000000
vt 0.000000 2.040102
vt -1.000000 0.959898
vt -1.000000 0.959898
vt -1.000000 1.000000
vt -1.000000 0.967918
vt 1.000000 0.959898
vt 1.988658 0.959898
vt 1.000000 0.959898
vt 2.000000 0.959898
vt 2.000000 0.967917
vt 2.000000 0.959898
vt 1.000000 2.040102
vt 1.000000 2.032082
vt 0.011342 3.988658
vt 0.000000 3.988658
vt 0.000000 3.011342
vt 0.011341 -0.000000
vt 0.011342 0.011342
vt 0.011342 0.959898
vt -0.011342 0.959898
vt 1.000000 3.988658
vt 0.988658 3.988658
vt 1.000000 3.011342
vt 1.011342 0.011342
vt 1.011342 0.959898
vt 0.988658 0.959898
vt 0.000000 2.988658
vt 0.000000 2.040102
vt 0.011341 2.040102
vt 0.011342 2.988658
vt 0.988658 3.011342
vt 0.988658 2.988659
vt 0.988658 2.040102
vt 1.000000 2.040102
vt 0.988658 0.011341
vt 0.011342 3.011342
vt 1.988658 0.011341
vt -0.988658 0.011342
vt -0.011342 0.011341
vt -0.988658 0.959898
vt 1.000000 1.000000
vt 0.000000 1.000000
vt 1.000000 2.000000
vt 1.000000 1.000000
vt 0.000000 2.000000
vt 1.000000 2.000000
vt 0.000000 1.000000
vt 0.000000 2.000000
vt 1.000000 1.000000
vt 0.000000 1.000000
vt 1.000000 2.000000
vt 1.000000 1.000000
vt 0.000000 2.000000
vt 1.000000 2.000000
vt 0.000000 1.000000
vt 0.000000 2.000000
vt 0.988658 -0.000000
vt 1.000000 2.988658
vt 0.000000 0.959898
vt 1.000000 0.967917
vt 1.000000 0.959898
vt 0.000000 2.044365
vt 1.000000 2.050824
vt 1.000000 2.040102
vn 0.000000 1.000000 0.000000
vn 0.000000 1.000000 0.000000
vn 0.000000 1.000000 0.000000
vn 0.000000 1.000000 0.000000
vn -1.000000 0.000000 0.000000
vn -1.000000 0.000000 0.000000
vn -1.000000 0.000000 0.000000
vn -1.000000 0.000000 0.000000
vn 0.000000 0.000000 -1.000000
vn 0.000000 0.000000 -1.000000
vn 0.000000 0.000000 -1.000000
vn 0.000000 0.000000 -1.000000
vn 1.000000 0.000000 0.000000
vn 1.000000 0.000000 0.000000
vn 1.000000 0.000000 0.000000
vn 1.000000 0.000000 0.000000
vn 0.000000 0.000000 1.000000
vn 0.000000 0.000000 1.000000
vn 0.000000 0.000000 1.000000
vn 0.000000 0.000000 1.000000
vn 0.000000 0.844775 0.535122
vn 0.000000 0.844775 0.535122
vn 0.000000 0.844775 0.535122
vn 0.000000 0.844775 0.535122
vn -1.000000 0.000000 0.000000
vn -1.000000 0.000000 0.000000
vn -1.000000 0.000000 0.000000
vn -1.000000 0.000000 0.000000
vn -1.000000 0.000000 0.000000
vn -0.535122 0.844775 0.000000
vn -0.535122 0.844775 0.000000
vn -0.535122 0.844775 0.000000
vn -0.535122 0.844775 0.000000
vn 0.000000 0.000000 -1.000000
vn 0.000000 0.000000 -1.000000
vn 0.000000 0.000000 -1.000000
vn 0.000000 0.000000 -1.000000
vn 0.000000 0.000000 -1.000000
vn 0.000000 0.844775 -0.535122
vn 0.000000 0.844775 -0.535122
vn 0.000000 0.844775 -0.535122
vn 0.000000 0.844775 -0.535122
vn 1.000000 0.000000 0.000000
vn 1.000000 0.000000 0.000000
vn 1.000000 0.000000 0.000000
vn 1.000000 0.000000 0.000000
vn 1.000000 0.000000 0.000000
vn -0.831302 0.555821 0.000000
vn -0.831302 0.555821 0.000000
vn -0.831302 0.555821 0.000000
vn -0.831302 0.555821 0.000000
vn 0.000000 0.000000 1.000000
vn 0.000000 0.000000 1.000000
vn 0.000000 0.000000 1.000000
vn 0.000000 0.000000 1.000000
vn 0.000000 0.000000 1.000000
vn 0.000000 0.000000 1.000000
vn 0.000000 0.000000 1.000000
vn 0.000000 0.000000 1.000000
vn 0.000000 0.000000 1.000000
vn 0.000000 0.000000 1.000000
vn -0.000003 -0.844814 -0.535060
vn -0.000003 -0.844819 -0.535053
vn 0.000003 -0.844819 -0.535053
vn 0.000003 -0.844814 -0.535060
vn 0.000000 -0.844775 -0.535122
vn 0.000000 -0.844775 -0.535122
vn 0.831318 -0.555797 0.000004
vn 0.831335 -0.555771 0.000003
vn 0.831335 -0.555771 -0.000003
vn 0.831318 -0.555797 -0.000004
vn 0.831404 -0.555669 0.000000
vn 0.831404 -0.555669 0.000000
vn 1.000000 0.000000 0.000000
vn 1.000000 0.000000 0.000000
vn 1.000000 0.000000 0.000000
vn 1.000000 0.000000 0.000000
vn 1.000000 0.000000 0.000000
vn -1.000000 0.000000 0.000000
vn -1.000000 0.000000 0.000000
vn -1.000000 0.000000 0.000000
vn -1.000000 0.000000 0.000000
vn -1.000000 0.000000 0.000000
vn 0.535060 -0.844814 -0.000003
vn 0.535053 -0.844818 -0.000003
vn 0.535053 -0.844818 0.000003
vn 0.535060 -0.844814 0.000003
vn 0.535122 -0.844774 0.000000
vn 0.535122 -0.844774 0.000000
vn 0.000000 0.000000 -1.000000
vn 0.000000 0.000000 -1.000000
vn 0.000000 0.000000 -1.000000
vn 0.000000 0.000000 -1.000000
vn 0.000000 0.000000 -1.000000
vn 0.000003 -0.844814 0.535060
vn 0.000003 -0.844818 0.535053
vn -0.000003 -0.844818 0.535053
vn -0.000003 -0.844814 0.535060
vn 0.000000 -0.844774 0.535122
vn 0.000000 -0.844774 0.535122
vn -0.707106 -0.707108 0.000000
vn -0.707106 -0.707108 0.000000
vn -0.707106 -0.707108 0.000000
vn -0.707106 -0.707108 0.000000
vn 0.000000 -0.707107 0.707106
vn 0.000000 -0.707107 0.707106
vn 0.000000 -0.707107 0.707106
vn 0.000000 -0.707107 0.707106
vn -0.707107 0.000000 0.707106
vn -0.707107 0.000000 0.707106
vn -0.707107 0.000000 0.707106
vn -0.707107 0.000000 0.707106
vn 0.707106 -0.707108 0.000000
vn 0.707106 -0.707108 0.000000
vn 0.707106 -0.707108 0.000000
vn 0.707106 -0.707108 0.000000
vn 0.707107 0.000000 0.707106
vn 0.707107 0.000000 0.707106
vn 0.707107 0.000000 0.707106
vn 0.707107 0.000000 0.707106
vn -0.707107 0.000000 -0.707106
vn -0.707107 0.000000 -0.707106
vn -0.707107 0.000000 -0.707106
vn -0.707107 0.000000 -0.707106
vn 0.000000 -0.707107 -0.707106
vn 0.000000 -0.707107 -0.707106
vn 0.000000 -0.707107 -0.707106
vn 0.000000 -0.707107 -0.707106
vn 0.707107 0.000000 -0.707106
vn 0.707107 0.000000 -0.707106
vn 0.707107 0.000000 -0.707106
vn 0.707107 0.000000 -0.707106
vn 0.707110 0.707104 0.000000
vn 0.707110 0.707104 0.000000
vn 0.707110 0.707104 0.000000
vn 0.707110 0.707104 0.000000
vn 0.000000 0.707103 -0.707111
vn 0.000000 0.707103 -0.707111
vn 0.000000 0.707103 -0.707111
vn 0.000000 0.707103 -0.707111
vn -0.707110 0.707104 0.000000
vn -0.707110 0.707104 0.000000
vn -0.707110 0.707104 0.000000
vn -0.707110 0.707104 0.000000
vn 0.000000 0.707103 0.707111
vn 0.000000 0.707103 0.707111
vn 0.000000 0.707103 0.707111
vn 0.000000 0.707103 0.707111
vn 0.000000 0.000000 1.000000
vn 0.000000 0.000000 1.000000
vn 0.000000 0.000000 1.000000
vn 0.000000 0.000000 1.000000
vn 0.000000 0.000000 -1.000000
vn 0.000000 0.000000 -1.000000
vn 0.000000 0.000000 -1.000000
vn 0.000000 0.000000 -1.000000
vn 0.000000 -1.000000 0.000000
vn 0.000000 -1.000000 0.000000
vn 0.000000 -1.000000 0.000000
vn 0.000000 -1.000000 0.000000
vn 1.000000 0.000000 0.000000
vn 1.000000 0.000000 0.000000
vn 1.000000 0.000000 0.000000
vn 1.000000 0.000000 0.000000
vn -1.000000 0.000000 0.000000
vn -1.000000 0.000000 0.000000
vn -1.000000 0.000000 0.000000
vn -1.000000 0.000000 0.000000
vn 0.000000 1.000000 -0.000000
vn 0.000000 1.000000 -0.000000
vn 0.000000 1.000000 -0.000000
vn 0.000000 1.000000 -0.000000
vn 0.000000 1.000000 0.000000
vn 0.000000 1.000000 0.000000
vn 0.000000 1.000000 0.000000
vn 0.000000 1.000000 0.000000
vn 0.000000 0.000000 -1.000000
vn 0.000000 0.000000 -1.000000
vn 0.000000 0.000000 -1.000000
vn 0.000000 0.000000 -1.000000
vn -1.000000 0.000000 0.000000
vn -1.000000 0.000000 0.000000
vn -1.000000 0.000000 0.000000
vn -1.000000 0.000000 0.000000
vn 0.000000 0.000000 1.000000
vn 0.000000 0.000000 1.000000
vn 0.000000 0.000000 1.000000
vn 0.000000 0.000000 1.000000
vn 1.000000 0.000000 0.000000
vn 1.000000 0.000000 0.000000
vn 1.000000 0.000000 0.000000
vn 1.000000 0.000000 0.000000
vn -0.577349 -0.577353 0.577349
vn -0.577349 -0.577353 0.577349
vn -0.577349 -0.577353 0.577349
vn 0.577349 -0.577353 0.577349
vn 0.577349 -0.577353 0.577349
vn 0.577349 -0.577353 0.577349
vn -0.577349 -0.577353 -0.577349
vn -0.577349 -0.577353 -0.577349
vn -0.577349 -0.577353 -0.577349
vn 0.577349 -0.577353 -0.577349
vn 0.577349 -0.577353 -0.577349
vn 0.577349 -0.577353 -0.577349
vn -0.020034 -0.999599 0.020032
vn 0.020034 -0.999599 0.020032
vn -0.020034 -0.999599 -0.020034
vn 0.020034 -0.999599 -0.020032
s off
g pCube1
usemtl initialShadingGroup
f 5/66/1 6/68/2 7/70/3 8/72/4
f 14/19/5 13/10/6 15/4/7 16/5/8
f 17/16/9 18/6/10 19/28/11 20/17/12
f 22/24/13 21/27/14 23/7/15 24/8/16
f 10/13/17 9/12/18 11/2/19 12/3/20
f 2/57/21 1/63/22 12/3/23 11/2/24
f 1/63/25 41/11/26 40/75/27 10/13/28 12/3/29
f 1/63/30 3/20/31 16/5/32 15/4/33
f 3/20/34 59/21/35 58/18/36 14/19/37 16/5/38
f 3/61/39 4/59/40 18/6/41 17/16/42
f 4/59/43 64/29/44 63/80/45 19/28/46 18/6/47
f 4/1/48 2/57/49 24/8/50 23/7/51
f 2/57/52 43/76/53 42/22/54 22/24/55 24/8/56
f 37/9/57 41/11/58 1/63/59 15/4/60 13/10/61
s 1
f 40/75/62 39/35/63 45/42/64 44/77/65 9/12/66 10/13/67
f 42/22/68 46/41/69 61/23/70 60/25/71 21/27/72 22/24/73
s off
f 44/77/74 43/76/75 2/57/76 11/2/77 9/12/78
f 55/14/79 59/15/80 3/61/81 17/16/82 20/17/83
s 1
f 58/18/84 57/56/85 38/36/86 37/9/87 13/10/88 14/19/89
s off
f 60/25/90 64/26/91 4/1/92 23/7/93 21/27/94
s 1
f 63/80/95 62/49/96 56/45/97 55/14/98 20/17/99 19/28/100
s off
f 25/30/101 27/31/102 33/32/103 32/52/104
f 26/34/105 25/33/106 30/73/107 29/51/108
f 27/55/109 26/34/110 39/35/111 38/36/112
f 28/37/113 30/38/114 35/47/115 34/39/116
f 29/51/117 28/40/118 46/41/119 45/42/120
f 31/46/121 33/43/122 57/44/123 56/45/124
f 32/52/125 31/46/126 36/48/127 35/47/128
f 34/74/129 36/48/130 62/49/131 61/50/132
f 47/58/133 48/71/134 54/69/135 53/64/136
f 48/71/137 47/58/138 49/60/139 50/65/140
f 50/65/141 49/60/142 51/62/143 52/67/144
f 52/67/145 51/62/146 53/64/147 54/69/148
f 26/34/149 29/51/150 45/42/151 39/35/152
f 31/46/153 56/45/154 62/49/155 36/48/156
f 32/52/157 35/47/158 30/38/159 25/30/160
f 28/40/161 34/53/162 61/23/163 46/41/164
f 33/54/165 27/55/166 38/36/167 57/56/168
s 3
f 1/63/169 2/57/170 49/60/171 47/58/172
f 2/57/170 4/59/173 51/62/174 49/60/171
f 4/59/173 3/61/175 53/64/176 51/62/174
f 3/61/175 1/63/169 47/58/172 53/64/176
s off
f 48/71/177 50/65/178 6/68/179 5/66/180
f 50/65/181 52/67/182 7/70/183 6/68/184
f 52/67/185 54/69/186 8/72/187 7/70/188
f 54/69/189 48/71/190 5/66/191 8/72/192
f 25/33/193 26/34/194 27/55/195
f 28/40/196 29/51/197 30/73/198
f 31/46/199 32/52/200 33/43/201
f 34/74/202 35/47/203 36/48/204
s 1
f 37/9/87 38/36/86 39/35/63 40/75/62 41/11/205
f 42/22/68 43/76/206 44/77/65 45/42/64 46/41/69
f 55/14/98 56/45/97 57/44/85 58/78/84 59/15/207
f 60/79/71 61/50/70 62/49/96 63/80/95 64/29/208
