# This file uses centimeters as units for non-parametric coordinates.

mtllib DocumentFolder.mtl
g default
v -0.452661 -0.030178 0.422296
v 0.539371 -0.030178 0.296315
v -0.452661 -0.014735 0.422296
v 0.539371 -0.014735 0.296315
v -0.539371 -0.014735 -0.260498
v 0.452661 -0.014735 -0.386480
v -0.539371 -0.030178 -0.260498
v 0.452661 -0.030178 -0.386480
vt 0.858018 0.494807
vt 0.746531 0.493348
vt 0.859477 0.383321
vt 0.747991 0.381862
vt 0.860936 0.271835
vt 0.749450 0.270375
vt 0.862396 0.160348
vt 0.750909 0.158889
vt 0.863855 0.048862
vt 0.752369 0.047403
vt 0.635045 0.491889
vt 0.636504 0.380402
vt 0.969504 0.496267
vt 0.970963 0.384780
vn 0.125982 0.000000 0.992033
vn 0.125982 0.000000 0.992033
vn 0.125982 0.000000 0.992033
vn 0.125982 0.000000 0.992033
vn 0.000000 1.000000 -0.000000
vn 0.000000 1.000000 -0.000000
vn 0.000000 1.000000 -0.000000
vn 0.000000 1.000000 -0.000000
vn -0.125982 0.000000 -0.992033
vn -0.125982 0.000000 -0.992033
vn -0.125982 0.000000 -0.992033
vn -0.125982 0.000000 -0.992033
vn 0.000000 -1.000000 0.000000
vn 0.000000 -1.000000 0.000000
vn 0.000000 -1.000000 0.000000
vn 0.000000 -1.000000 0.000000
vn 0.992033 0.000000 -0.125982
vn 0.992033 0.000000 -0.125982
vn 0.992033 0.000000 -0.125982
vn 0.992033 0.000000 -0.125982
vn -0.992033 0.000000 0.125982
vn -0.992033 0.000000 0.125982
vn -0.992033 0.000000 0.125982
vn -0.992033 0.000000 0.125982
s off
g pCube13 Folder
usemtl initialShadingGroup
f 1/1/1 2/2/2 4/4/3 3/3/4
f 3/3/5 4/4/6 6/6/7 5/5/8
f 5/5/9 6/6/10 8/8/11 7/7/12
f 7/7/13 8/8/14 2/10/15 1/9/16
f 2/2/17 8/11/18 6/12/19 4/4/20
f 7/13/21 1/1/22 3/3/23 5/14/24
g default
v -0.512551 -0.056636 0.339029
v 0.512551 -0.056636 0.339029
v -0.512551 0.056636 0.339029
v 0.512551 0.056636 0.339029
v -0.512551 0.056636 -0.425739
v 0.512551 0.056636 -0.425739
v -0.512551 -0.056636 -0.425739
v 0.512551 -0.056636 -0.425739
v 0.112671 -0.056636 0.339029
v 0.112671 -0.056636 -0.425739
v 0.112671 0.056636 -0.425739
v 0.112671 0.056636 0.339029
v 0.186792 -0.056636 0.391598
v 0.186792 0.056636 0.265049
v 0.186792 0.056636 -0.425739
v 0.186792 -0.056636 -0.425739
v 0.435166 -0.056636 0.391598
v 0.435166 0.056636 0.265049
v 0.435166 0.056636 -0.425739
v 0.435166 -0.056636 -0.425739
v 0.488790 -0.056636 0.339029
v 0.488790 0.056636 0.339029
v 0.488790 0.056636 -0.425739
v 0.488790 -0.056636 -0.425739
v -0.512551 0.042715 0.339029
v 0.112671 0.042715 0.339029
v 0.186792 0.042715 0.265049
v 0.435166 0.042715 0.265049
v 0.488790 0.042715 0.339029
v 0.512551 0.042715 0.339029
v 0.512551 0.042715 -0.438696
v 0.488790 0.042715 -0.438696
v 0.435166 0.042715 -0.438696
v 0.186792 0.042715 -0.438696
v 0.112671 0.042715 -0.438696
v -0.512551 0.042715 -0.438696
v -0.512551 -0.031255 0.339029
v 0.112671 -0.031255 0.339029
v 0.186909 -0.031255 0.391598
v 0.436106 -0.031255 0.391598
v 0.488790 -0.031255 0.339029
v 0.512551 -0.031255 0.339029
v 0.512551 -0.031255 -0.438696
v 0.488790 -0.031255 -0.438696
v 0.435166 -0.031255 -0.438696
v 0.186792 -0.031255 -0.438696
v 0.112671 -0.031255 -0.438696
v -0.512551 -0.031255 -0.438696
v -0.512551 0.056636 -0.408561
v 0.112671 0.056636 -0.408561
v 0.186792 0.056636 -0.408561
v 0.435166 0.056636 -0.408561
v 0.488790 0.056636 -0.408561
v 0.512551 0.056636 -0.408561
v 0.512551 0.042715 -0.421518
v 0.512551 -0.031255 -0.421518
v 0.512551 -0.056636 -0.408561
v 0.488790 -0.056636 -0.408561
v 0.435166 -0.056636 -0.408561
v 0.186792 -0.056636 -0.408561
v 0.112671 -0.056636 -0.408561
v -0.512551 -0.056636 -0.408561
v -0.512551 -0.031255 -0.421518
v -0.512551 0.042715 -0.421518
v 0.186909 0.042715 -0.421518
v 0.186909 -0.031255 -0.421518
v 0.112103 0.042715 -0.421518
v 0.112103 -0.031255 -0.421518
v 0.436106 -0.031255 -0.421518
v 0.436106 0.042715 -0.421518
v 0.486887 -0.031255 -0.421518
v 0.486887 0.042715 -0.421518
v 0.512551 0.002604 -0.455970
v 0.512551 0.002604 -0.438791
v 0.486887 0.002604 -0.438791
v 0.436106 0.002604 -0.438791
v 0.186909 0.002604 -0.438791
v 0.112103 0.002604 -0.438791
v -0.512551 0.002604 -0.438791
v -0.512551 0.002604 -0.455970
v 0.112671 0.002604 -0.455970
v 0.186792 0.002604 -0.455970
v 0.435166 0.002604 -0.455970
v 0.488790 0.002604 -0.455970
v 0.456616 -0.056636 0.377604
v 0.456616 -0.056636 -0.408561
v 0.456616 -0.056636 -0.425739
v 0.456616 -0.031255 -0.438696
v 0.456616 0.002604 -0.455970
v 0.456616 0.042715 -0.438696
v 0.456616 0.056636 -0.425739
v 0.456616 0.056636 -0.408561
v 0.456616 0.056636 0.284620
v 0.456616 0.042715 0.284620
v 0.456419 0.042715 -0.421518
v 0.456419 0.002604 -0.438791
v 0.456419 -0.031255 -0.421518
v 0.457180 -0.031255 0.377604
v 0.149731 -0.056636 0.372347
v 0.149731 -0.056636 -0.408561
v 0.149731 -0.056636 -0.425739
v 0.149731 -0.031255 -0.438696
v 0.149731 0.002604 -0.455970
v 0.149731 0.042715 -0.438696
v 0.149731 0.056636 -0.425739
v 0.149731 0.056636 -0.408561
v 0.149731 0.056636 0.292018
v 0.149731 0.042715 0.292018
v 0.149506 0.042715 -0.421518
v 0.149506 0.002604 -0.438791
v 0.149506 -0.031255 -0.421518
v 0.149790 -0.031255 0.372347
vt 0.981606 0.656229
vt 0.564304 0.939921
vt 0.510434 0.671904
vt 0.512545 0.966603
vt 0.290577 0.673683
vt 0.293084 0.967990
vt 0.253421 0.674040
vt 0.256199 0.968383
vt 0.033711 0.676270
vt 0.036717 0.970668
vt 0.751668 0.973364
vt 0.728419 0.968574
vt 0.751966 0.661238
vt 0.727922 0.665638
vt 0.639640 0.852962
vt 0.035523 0.855867
vt 0.255037 0.853644
vt 0.292097 0.853281
vt 0.511010 0.850990
vt 0.629927 0.876179
vt 0.020659 0.877306
vt 0.490366 0.872716
vt 0.292287 0.874568
vt 0.255241 0.874923
vt 0.593769 0.927417
vt 0.021401 0.948613
vt 0.491086 0.944473
vt 0.292916 0.945840
vt 0.255941 0.946195
vt 0.573882 0.939551
vt 0.036647 0.963849
vt 0.512286 0.959888
vt 0.293040 0.961200
vt 0.256113 0.961565
vt 0.512295 0.674030
vt 0.514814 0.851204
vt 0.494232 0.873065
vt 0.494934 0.944124
vt 0.514028 0.957792
vt 0.512765 0.962777
vt 0.287656 0.968023
vt 0.730959 0.968633
vt 0.287603 0.961241
vt 0.287473 0.945890
vt 0.286833 0.874623
vt 0.286642 0.853334
vt 0.730655 0.665501
vt 0.285107 0.673734
vt 0.979276 0.669502
vt 0.632810 0.851320
vt 0.624594 0.872646
vt 0.588561 0.923716
vt 0.571654 0.931760
vt 0.974438 0.970266
vt 0.264360 0.968269
vt 0.748586 0.969031
vt 0.264275 0.961471
vt 0.264099 0.946114
vt 0.263412 0.874845
vt 0.263211 0.853565
vt 0.748944 0.665607
vt 0.261616 0.673960
vt 0.724531 0.665210
vt 0.295518 0.673638
vt 0.297025 0.853232
vt 0.297214 0.874517
vt 0.297833 0.945793
vt 0.297951 0.961168
vt 0.297996 0.967985
vt 0.725045 0.969108
vt 0.728776 0.965225
vt 0.751834 0.966519
vt 0.251263 0.968446
vt 0.755535 0.973949
vt 0.251190 0.961629
vt 0.251024 0.946244
vt 0.250315 0.874969
vt 0.250109 0.853690
vt 0.755900 0.660604
vt 0.248480 0.674089
vt 0.752141 0.668179
vt 0.728342 0.669078
vt 0.534481 0.871426
vt 0.729717 0.871763
vt 0.753253 0.872007
vt 0.991427 0.875232
vt 0.513455 0.850624
vt 0.729809 0.850167
vt 0.753392 0.850308
vt 0.976401 0.853273
vt 0.990201 0.948155
vt 0.752324 0.944223
vt 0.729016 0.943466
vt 0.534021 0.941251
vt 0.974557 0.963314
vt 0.752010 0.959020
vt 0.728855 0.957940
vt 0.512845 0.956092
vt 0.275189 0.968131
vt 0.740795 0.969915
vt 0.740887 0.965828
vt 0.741143 0.958480
vt 0.741463 0.943867
vt 0.742292 0.871890
vt 0.742409 0.850240
vt 0.741047 0.668588
vt 0.741078 0.664337
vt 0.272547 0.673853
vt 0.274115 0.853458
vt 0.274310 0.874743
vt 0.274975 0.946005
vt 0.275123 0.961350
vt 0.588075 0.932878
vt 0.025481 0.954728
vt 0.251091 0.952398
vt 0.256011 0.952349
vt 0.264166 0.952264
vt 0.275032 0.952150
vt 0.287527 0.952039
vt 0.292965 0.951988
vt 0.297882 0.951942
vt 0.496701 0.950690
vt 0.498965 0.947869
vt 0.528399 0.947217
vt 0.728951 0.949263
vt 0.741347 0.949718
vt 0.752204 0.950138
vt 0.986001 0.954253
vt 0.584453 0.926945
vt 0.635276 0.866179
vt 0.026073 0.866608
vt 0.250212 0.864330
vt 0.255140 0.864289
vt 0.263311 0.864209
vt 0.274210 0.864103
vt 0.286735 0.863981
vt 0.292193 0.863928
vt 0.297121 0.863877
vt 0.497878 0.861875
vt 0.500914 0.864522
vt 0.526827 0.861021
vt 0.729770 0.860964
vt 0.742357 0.861067
vt 0.753332 0.861157
vt 0.985975 0.864280
vt 0.629123 0.863682
vt 0.974310 0.977693
vt 0.564150 0.931906
vt 0.679102 0.683911
vt 0.672240 0.682310
vn 0.706437 0.000000 0.707776
vn 0.706437 0.000000 0.707776
vn 0.094065 0.000000 0.995566
vn 0.094065 0.000000 0.995566
vn 0.000000 1.000000 0.000000
vn 0.000000 1.000000 0.000000
vn 0.000000 1.000000 0.000000
vn 0.000000 1.000000 0.000000
vn 0.000000 0.488261 -0.872697
vn 0.000000 0.488262 -0.872697
vn 0.000000 0.681300 -0.732005
vn 0.000000 0.681300 -0.732005
vn 0.000000 -1.000000 0.000000
vn 0.000000 -1.000000 0.000000
vn 0.000000 -1.000000 0.000000
vn 0.000000 -1.000000 0.000000
vn 1.000000 0.000003 0.000000
vn 1.000000 0.000002 0.000000
vn 1.000000 -0.000001 0.000000
vn 1.000000 0.000000 0.000000
vn -1.000000 -0.000001 0.000000
vn -1.000000 0.000002 0.000000
vn -1.000000 0.000003 0.000000
vn -1.000000 -0.000002 0.000000
vn 0.000000 -1.000000 0.000000
vn 0.000000 -1.000000 0.000000
vn 0.000000 -1.000000 0.000000
vn 0.000000 -1.000000 0.000000
vn 0.000000 0.681300 -0.732005
vn 0.000000 0.681300 -0.732005
vn 0.000000 0.488262 -0.872697
vn 0.000000 0.488262 -0.872697
vn 0.000000 1.000000 0.000000
vn 0.000000 1.000000 0.000000
vn 0.000000 1.000000 0.000000
vn 0.000000 1.000000 0.000000
vn 0.000000 0.000000 1.000000
vn 0.070806 0.000000 0.997490
vn 0.070806 0.000000 0.997490
vn 0.000000 0.000000 1.000000
vn -0.072342 0.000000 0.997380
vn -0.072342 0.000000 0.997380
vn -0.000000 1.000000 0.000000
vn -0.000000 1.000000 0.000000
vn 0.000000 0.488262 -0.872697
vn 0.000000 0.681300 -0.732005
vn -0.000000 -1.000000 0.000000
vn -0.000000 -1.000000 0.000000
vn -0.809671 0.000000 0.586884
vn -0.809671 0.000000 0.586884
vn -0.697263 0.000000 0.716816
vn -0.697263 0.000000 0.716816
vn 0.000000 1.000000 0.000000
vn 0.000000 1.000000 0.000000
vn 0.000000 1.000000 0.000000
vn 0.000000 1.000000 0.000000
vn 0.000000 0.488262 -0.872697
vn 0.000000 0.488261 -0.872697
vn 0.000000 0.681300 -0.732005
vn 0.000000 0.681300 -0.732005
vn 0.000000 -1.000000 0.000000
vn -0.000000 -1.000000 0.000000
vn 0.000000 -1.000000 0.000000
vn 0.000000 -1.000000 0.000000
vn 0.000000 0.000000 1.000000
vn 0.000000 0.000000 1.000000
vn 0.000000 1.000000 0.000000
vn 0.000000 1.000000 0.000000
vn 0.000000 0.488262 -0.872697
vn 0.000000 0.681300 -0.732005
vn 0.000000 -1.000000 0.000000
vn 0.000000 -1.000000 0.000000
vn 1.000000 -0.000000 0.000000
vn 1.000000 0.000000 0.000000
vn 1.000000 -0.000001 0.000000
vn 1.000000 0.000001 0.000000
vn 0.000000 -0.454540 -0.890727
vn 0.000000 -0.454540 -0.890727
vn 0.000000 0.000000 -1.000000
vn 0.000000 0.000000 -1.000000
vn -0.000000 -0.454540 -0.890727
vn 0.000000 -0.000000 -1.000000
vn -0.000000 -0.454539 -0.890727
vn 0.000000 -0.454539 -0.890727
vn 0.000000 0.000000 -1.000000
vn 0.000000 -0.000000 -1.000000
vn 0.000000 -0.454540 -0.890727
vn 0.000000 0.000000 -1.000000
vn -0.000000 0.000000 -1.000000
vn -0.000000 0.000000 -1.000000
vn 0.000000 -0.454539 -0.890727
vn -0.000000 -0.454540 -0.890727
vn -1.000000 0.000000 0.000000
vn -1.000000 -0.000001 0.000000
vn -1.000000 -0.000001 0.000000
vn -1.000000 -0.000001 0.000000
vn 0.000000 0.000000 1.000000
vn -0.050242 0.000058 0.998737
vn -0.050242 0.000058 0.998737
vn 0.000000 0.000000 1.000000
vn -0.066865 0.000232 0.997762
vn -0.578078 0.001158 0.815981
vn -0.578325 0.001157 0.815806
vn -0.067512 0.000234 0.997719
vn 0.053848 -0.001596 0.998548
vn 0.049731 -0.001474 0.998762
vn 0.569655 -0.006332 0.821859
vn 0.704123 -0.011247 0.709989
vn 0.702140 -0.011322 0.711949
vn 0.569655 -0.006332 0.821859
vn 0.000000 0.000000 1.000000
vn 0.000000 0.000000 1.000000
vn 1.000000 -0.000002 0.000000
vn 1.000000 0.000000 0.000000
vn 0.000000 -0.454682 -0.890654
vn 0.000000 -0.454682 -0.890654
vn 0.000000 -0.454682 -0.890654
vn 0.000000 -0.454682 -0.890654
vn -0.000000 -0.454682 -0.890654
vn 0.000000 -0.454682 -0.890654
vn 0.000000 -0.454682 -0.890654
vn 0.000000 -0.454682 -0.890654
vn -1.000000 0.000000 0.000000
vn -1.000000 -0.000002 0.000000
vn 0.000000 1.000000 0.000000
vn 0.000000 1.000000 0.000000
vn 0.000000 1.000000 0.000000
vn 0.000000 1.000000 0.000000
vn -0.000000 1.000000 0.000000
vn 0.000000 1.000000 0.000000
vn 0.000000 1.000000 0.000000
vn 0.000000 1.000000 0.000000
vn 1.000000 0.000003 0.000000
vn 1.000000 0.000003 0.000000
vn 1.000000 -0.000002 0.000000
vn 1.000000 -0.000002 0.000000
vn 0.000000 -1.000000 0.000000
vn 0.000000 -1.000000 0.000000
vn -0.000000 -1.000000 -0.000000
vn 0.000000 -1.000000 0.000000
vn -0.000000 -1.000000 -0.000000
vn 0.000000 -1.000000 0.000000
vn 0.000000 -1.000000 0.000000
vn 0.000000 -1.000000 0.000000
vn -1.000000 -0.000002 0.000000
vn -1.000000 -0.000002 0.000000
vn -1.000000 0.000003 0.000000
vn -1.000000 0.000003 0.000000
vn -0.000000 1.000000 -0.000000
vn -0.000000 1.000000 -0.000000
vn -0.000000 1.000000 0.000000
vn -0.000000 1.000000 0.000000
vn -0.000000 -1.000000 -0.000000
vn -0.000000 -1.000000 -0.000000
vn -0.000000 -1.000000 -0.000000
vn -0.000000 -1.000000 -0.000000
vn -0.000000 -0.000000 1.000000
vn -0.000000 -0.000000 1.000000
vn -0.000000 0.454433 0.890781
vn -0.000000 0.454433 0.890781
vn 0.000000 -1.000000 0.000000
vn 0.000000 -1.000000 0.000000
vn 0.000000 -0.000000 1.000000
vn 0.000000 0.454433 0.890781
vn 0.000000 1.000000 0.000000
vn 0.000000 1.000000 0.000000
vn 0.000000 -1.000000 0.000000
vn 0.000000 -1.000000 0.000000
vn 0.000000 -1.000000 0.000000
vn 0.000000 -1.000000 0.000000
vn 0.000000 0.454433 0.890781
vn 0.000000 0.454433 0.890781
vn -0.000000 0.000000 1.000000
vn -0.000000 0.000000 1.000000
vn 0.000000 1.000000 0.000000
vn 0.000000 1.000000 0.000000
vn 0.000000 1.000000 0.000000
vn 0.000000 1.000000 0.000000
vn -0.000000 1.000000 -0.000000
vn -0.000000 1.000000 -0.000000
vn -0.000000 1.000000 -0.000000
vn -0.000000 1.000000 -0.000000
vn 0.000001 0.000000 1.000000
vn 0.000001 0.000000 1.000000
vn 0.000001 0.454433 0.890781
vn 0.000001 0.454433 0.890781
vn 0.000000 -1.000000 0.000000
vn 0.000000 -1.000000 -0.000000
vn -0.000000 -1.000000 0.000000
vn -0.000000 -1.000000 0.000000
vn 0.000000 1.000000 -0.000000
vn 0.000000 1.000000 -0.000000
vn 0.000000 -0.000000 1.000000
vn 0.000000 0.454433 0.890781
vn 0.000000 -1.000000 -0.000000
vn 0.000000 -1.000000 -0.000000
vn 0.000001 -0.395522 0.918457
vn 0.000000 -0.395522 0.918457
vn 0.000001 -0.395522 0.918457
vn -0.000000 -0.395522 0.918457
vn -0.000000 -0.395522 0.918457
vn 0.000000 -0.395522 0.918457
vn -0.000000 -0.395522 0.918457
vn -0.000000 -0.395522 0.918457
s 1
g Folder pCube12
usemtl initialShadingGroup
f 115/153/25 116/154/26 35/51/27 22/36/28
s 2
f 113/151/29 114/152/30 59/80/31 23/37/32
s 3
f 42/59/33 112/150/34 113/151/35 23/37/36
s 4
f 68/91/37 108/146/38 109/147/39 24/38/40
s 5
f 62/84/41 63/85/42 39/56/43 14/26/44
s 6
f 44/61/45 72/96/46 57/77/47 13/28/48
s 4
f 15/21/49 18/31/50 69/92/51 70/94/52
s 3
f 13/19/53 19/32/54 43/60/55 44/62/56
s 2
f 57/78/57 58/79/58 19/32/59 13/19/60
s 1
f 33/49/61 34/50/62 20/33/63 11/17/64
f 22/36/28 35/51/27 36/52/65 26/41/66
s 2
f 23/37/32 59/80/31 60/81/67 27/42/68
s 3
f 41/58/69 42/59/33 23/37/36 27/42/70
s 4
f 67/90/71 68/91/37 24/38/40 28/43/72
s 1
f 101/136/73 102/137/74 37/53/75 30/46/76
s 2
f 99/134/77 100/135/78 61/82/79 31/47/80
s 3
f 40/57/81 98/133/82 99/134/83 31/47/84
s 4
f 66/89/85 94/129/86 95/130/87 32/48/88
s 1
f 30/46/76 37/53/75 38/54/89 12/18/90
s 2
f 31/47/80 61/82/79 62/83/91 14/20/92
s 3
f 39/55/93 40/57/81 31/47/84 14/20/94
s 4
f 65/87/95 66/89/85 32/48/88 16/22/96
s 5
f 81/114/97 82/115/98 64/86/99 51/70/100
s 3
f 51/69/101 52/71/102 92/126/103 81/113/104
f 52/71/102 96/131/105 97/132/106 92/126/103
f 53/72/107 54/73/108 90/124/109 91/125/110
f 54/73/108 110/148/111 111/149/112 90/124/109
f 88/122/113 89/123/114 55/74/115 56/76/116
s 6
f 56/75/117 71/95/118 87/120/119 88/121/120
s 13
f 9/163/121 17/29/122 46/64/123 45/164/124
f 47/65/125 120/160/126 107/144/127 21/34/128
f 48/66/129 47/65/125 21/34/128 25/39/130
f 49/67/131 106/143/132 93/127/133 29/44/134
f 50/162/135 49/67/131 29/44/134 10/16/136
s 5
f 64/86/99 65/88/137 16/25/138 51/70/100
s 3
f 32/48/139 52/71/102 51/69/101 16/22/140
f 95/130/141 96/131/105 52/71/102 32/48/139
f 24/38/142 54/73/108 53/72/107 28/43/143
f 109/147/144 110/148/111 54/73/108 24/38/142
f 56/76/116 55/74/115 18/31/145 15/21/146
s 6
f 15/27/147 70/93/148 71/95/118 56/75/117
s 2
f 11/17/149 20/33/150 58/79/58 57/78/57
f 59/80/31 114/152/30 115/153/151 22/36/152
f 60/81/67 59/80/31 22/36/152 26/41/153
f 61/82/79 100/135/78 101/136/154 30/46/155
f 62/83/91 61/82/79 30/46/155 12/18/156
s 5
f 38/54/157 63/85/42 62/84/41 12/18/158
f 10/161/159 65/88/137 64/86/99 50/68/160
s 4
f 29/45/161 66/89/85 65/87/95 10/24/162
f 93/128/163 94/129/86 66/89/85 29/45/161
f 21/35/164 68/91/37 67/90/71 25/40/165
f 107/145/166 108/146/38 68/91/37 21/35/164
f 70/94/52 69/92/51 17/30/167 9/23/168
s 6
f 71/95/118 70/93/148 9/15/169 45/63/170
f 57/77/47 72/96/46 33/49/171 11/17/172
s 14
f 48/105/173 77/106/174 74/99/175 47/100/176
s 15
f 78/107/177 36/108/178 35/97/179 73/98/180
s 16
f 84/117/181 85/118/182 74/99/183 77/106/184
s 15
f 73/98/180 35/97/179 116/155/185 117/156/186
s 16
f 85/118/182 118/157/187 119/158/188 74/99/183
s 14
f 47/100/176 74/99/175 119/158/189 120/159/190
s 15
f 75/102/191 34/101/192 33/49/193 72/96/194
s 16
f 71/95/195 76/103/196 86/119/197 87/120/198
s 14
f 46/104/199 76/103/200 71/95/201 45/63/202
f 49/109/203 79/110/204 105/141/205 106/142/206
s 16
f 83/116/207 104/140/208 105/141/209 79/110/210
s 15
f 80/111/211 37/112/212 102/138/213 103/139/214
s 14
f 50/68/215 64/86/216 79/110/204 49/109/203
s 16
f 82/115/217 83/116/207 79/110/210 64/86/218
s 15
f 63/85/219 38/54/220 37/112/212 80/111/211
s 5
f 63/85/42 82/115/98 81/114/97 39/56/43
s 16
f 80/111/221 83/116/207 82/115/217 63/85/222
f 103/139/223 104/140/208 83/116/207 80/111/221
f 73/98/224 85/118/182 84/117/181 78/107/225
f 117/156/226 118/157/187 85/118/182 73/98/224
f 87/120/198 86/119/197 75/102/227 72/96/228
s 6
f 88/121/120 87/120/119 72/96/46 44/61/45
s 3
f 44/62/56 43/60/55 89/123/114 88/122/113
f 90/124/109 111/149/112 112/150/34 42/59/33
f 91/125/110 90/124/109 42/59/33 41/58/69
f 92/126/103 97/132/106 98/133/82 40/57/81
f 81/113/104 92/126/103 40/57/81 39/55/93
s 4
f 25/40/165 67/90/71 94/129/86 93/128/163
f 95/130/87 94/129/86 67/90/71 28/43/72
s 3
f 28/43/143 53/72/107 96/131/105 95/130/141
f 97/132/106 96/131/105 53/72/107 91/125/110
f 98/133/82 97/132/106 91/125/110 41/58/69
f 99/134/83 98/133/82 41/58/69 27/42/70
s 2
f 27/42/68 60/81/67 100/135/78 99/134/77
f 101/136/154 100/135/78 60/81/67 26/41/153
s 1
f 26/41/66 36/52/65 102/137/74 101/136/73
s 15
f 103/139/214 102/138/213 36/108/178 78/107/177
s 16
f 78/107/225 84/117/181 104/140/208 103/139/223
f 105/141/209 104/140/208 84/117/181 77/106/184
s 14
f 106/142/206 105/141/205 77/106/174 48/105/173
s 13
f 93/127/133 106/143/132 48/66/129 25/39/130
s 4
f 17/30/167 69/92/51 108/146/38 107/145/166
f 109/147/39 108/146/38 69/92/51 18/31/50
s 3
f 18/31/145 55/74/115 110/148/111 109/147/144
f 111/149/112 110/148/111 55/74/115 89/123/114
f 112/150/34 111/149/112 89/123/114 43/60/55
f 113/151/35 112/150/34 43/60/55 19/32/54
s 2
f 19/32/59 58/79/58 114/152/30 113/151/29
f 115/153/151 114/152/30 58/79/58 20/33/150
s 1
f 20/33/63 34/50/62 116/154/26 115/153/25
s 15
f 117/156/186 116/155/185 34/101/192 75/102/191
s 16
f 75/102/227 86/119/197 118/157/187 117/156/226
f 119/158/188 118/157/187 86/119/197 76/103/196
s 14
f 120/159/190 119/158/189 76/103/200 46/104/199
s 13
f 107/144/127 120/160/126 46/64/123 17/29/122
g default
v -0.500000 -0.014464 0.276861
v 0.500000 -0.014464 0.276861
v -0.500000 0.039963 0.276861
v 0.500000 0.039963 0.276861
v -0.500000 0.039963 -0.411417
v 0.500000 0.039963 -0.411417
v -0.500000 -0.014464 -0.411417
v 0.500000 -0.014464 -0.411417
vt 0.137111 0.050172
vt 0.254698 0.050172
vt 0.137111 0.167758
vt 0.254698 0.167758
vt 0.137111 0.285344
vt 0.254698 0.285344
vt 0.137111 0.402931
vt 0.254698 0.402931
vt 0.137111 0.520517
vt 0.254698 0.520517
vt 0.372284 0.050172
vt 0.372284 0.167758
vt 0.019525 0.050172
vt 0.019525 0.167758
vn 0.000000 0.000000 1.000000
vn 0.000000 0.000000 1.000000
vn 0.000000 0.000000 1.000000
vn 0.000000 0.000000 1.000000
vn 0.000000 1.000000 0.000000
vn 0.000000 1.000000 0.000000
vn 0.000000 1.000000 0.000000
vn 0.000000 1.000000 0.000000
vn 0.000000 0.000000 -1.000000
vn 0.000000 0.000000 -1.000000
vn 0.000000 0.000000 -1.000000
vn 0.000000 0.000000 -1.000000
vn 0.000000 -1.000000 0.000000
vn 0.000000 -1.000000 0.000000
vn 0.000000 -1.000000 0.000000
vn 0.000000 -1.000000 0.000000
vn 1.000000 0.000000 0.000000
vn 1.000000 0.000000 0.000000
vn 1.000000 0.000000 0.000000
vn 1.000000 0.000000 0.000000
vn -1.000000 0.000000 0.000000
vn -1.000000 0.000000 0.000000
vn -1.000000 0.000000 0.000000
vn -1.000000 0.000000 0.000000
s off
g Folder pCube11
usemtl initialShadingGroup
f 121/165/229 122/166/230 124/168/231 123/167/232
f 123/167/233 124/168/234 126/170/235 125/169/236
f 125/169/237 126/170/238 128/172/239 127/171/240
f 127/171/241 128/172/242 122/174/243 121/173/244
f 122/166/245 128/175/246 126/176/247 124/168/248
f 127/177/249 121/165/250 123/167/251 125/178/252
