# This file uses centimeters as units for non-parametric coordinates.

mtllib LabTable.mtl
g default
v -1.726897 -1.422268 3.260506
v -1.195241 -1.422268 3.260506
v -1.726897 2.130803 3.260506
v -1.195241 2.130803 3.260506
v -1.726897 2.130803 2.824678
v -1.195241 2.130803 2.824678
v -1.726897 -1.422268 2.824678
v -1.195241 -1.422268 2.824678
v 1.227679 -1.422268 3.260506
v 1.759336 -1.422268 3.260506
v 1.227679 2.130803 3.260506
v 1.759336 2.130803 3.260506
v 1.227679 2.130803 2.824678
v 1.759336 2.130803 2.824678
v 1.227679 -1.422268 2.824678
v 1.759336 -1.422268 2.824678
v -2.256405 2.510929 4.099938
v 2.256405 2.510929 4.099938
v -2.256405 2.756387 4.099938
v 2.256405 2.756387 4.099938
v -2.256405 2.756387 -4.099938
v 2.256405 2.756387 -4.099938
v -2.256405 2.510929 -4.099938
v 2.256405 2.510929 -4.099938
v -2.004953 2.510929 -3.643044
v 2.004953 2.510929 -3.643044
v 2.004953 2.510929 3.643044
v -2.004953 2.510929 3.643044
v -2.004953 2.028062 -3.643044
v 2.004953 2.028062 -3.643044
v 2.004953 2.028062 3.643044
v -2.004953 2.028062 3.643044
v 1.227679 -1.422268 -2.957422
v 1.759336 -1.422268 -2.957422
v 1.227679 2.130803 -2.957422
v 1.759336 2.130803 -2.957422
v 1.227679 2.130803 -3.393251
v 1.759336 2.130803 -3.393251
v 1.227679 -1.422268 -3.393251
v 1.759336 -1.422268 -3.393251
v -1.726897 -1.422268 -2.957422
v -1.195241 -1.422268 -2.957422
v -1.726897 2.130803 -2.957422
v -1.195241 2.130803 -2.957422
v -1.726897 2.130803 -3.393251
v -1.195241 2.130803 -3.393251
v -1.726897 -1.422268 -3.393251
v -1.195241 -1.422268 -3.393251
vt 0.059784 0.656163
vt 0.118435 0.096118
vt 0.077171 0.371792
vt 0.147765 0.402119
vt 0.079234 0.404921
vt 0.117120 0.403426
vt 0.090411 0.654842
vt 0.127786 0.653246
vt 0.091715 0.685445
vt 0.129067 0.683867
vt 0.864131 0.640197
vt 0.923220 0.107057
vt 0.958811 0.388041
vt 0.889832 0.358851
vt 0.928012 0.388692
vt 0.890465 0.389521
vt 0.932624 0.639150
vt 0.894926 0.639759
vt 0.933263 0.670492
vt 0.895050 0.670977
vt 0.408513 0.035871
vt 0.606397 0.035869
vt 0.606397 0.046631
vt 0.408513 0.046632
vt 0.606399 0.406194
vt 0.408517 0.406194
vt 0.627568 0.438134
vt 0.408517 0.416957
vt 0.419545 0.458163
vt 0.595370 0.458166
vt 0.595359 0.777636
vt 0.419539 0.777631
vt 0.965942 0.035863
vt 0.965942 0.046626
vt 0.049048 0.035871
vt 0.049048 0.046632
vt 0.616542 0.458167
vt 0.419544 0.436991
vt 0.606383 0.818841
vt 0.595359 0.798808
vt 0.387341 0.797663
vt 0.398367 0.777630
vt 0.716438 0.662846
vt 0.777187 0.129450
vt 0.811669 0.411088
vt 0.742914 0.381129
vt 0.780943 0.411582
vt 0.743399 0.412231
vt 0.784714 0.662093
vt 0.747141 0.662530
vt 0.785437 0.693140
vt 0.747307 0.693676
vt 0.224429 0.669579
vt 0.282627 0.108144
vt 0.311937 0.415369
vt 0.241223 0.385054
vt 0.281295 0.416734
vt 0.243386 0.418294
vt 0.292423 0.666534
vt 0.255054 0.668201
vt 0.293761 0.697153
vt 0.256414 0.698800
vt 0.595371 0.436992
vt 0.606398 0.416958
vt 0.419538 0.798803
vt 0.616531 0.777637
vt 0.398373 0.458163
vt 0.408512 0.818835
vt 0.627556 0.797671
vt 0.387349 0.438129
vt 0.323067 0.665170
vt 0.282215 0.384888
vt 0.241206 0.108115
vt 0.212698 0.419855
vt 0.815435 0.661675
vt 0.780517 0.380612
vt 0.739601 0.129947
vt 0.712692 0.412874
vt 0.963409 0.638602
vt 0.927365 0.358191
vt 0.885629 0.107686
vt 0.859668 0.390237
vt 0.158430 0.651937
vt 0.118000 0.371639
vt 0.077197 0.096084
vt 0.048545 0.406416
vn 0.000000 0.000000 1.000000
vn 0.000000 0.000000 1.000000
vn 0.000000 0.000000 1.000000
vn 0.000000 0.000000 1.000000
vn 0.000000 1.000000 0.000000
vn 0.000000 1.000000 0.000000
vn 0.000000 1.000000 0.000000
vn 0.000000 1.000000 0.000000
vn 0.000000 0.000000 -1.000000
vn 0.000000 0.000000 -1.000000
vn 0.000000 0.000000 -1.000000
vn 0.000000 0.000000 -1.000000
vn 0.000000 -1.000000 0.000000
vn 0.000000 -1.000000 0.000000
vn 0.000000 -1.000000 0.000000
vn 0.000000 -1.000000 0.000000
vn 1.000000 0.000000 0.000000
vn 1.000000 0.000000 0.000000
vn 1.000000 0.000000 0.000000
vn 1.000000 0.000000 0.000000
vn -1.000000 0.000000 0.000000
vn -1.000000 0.000000 0.000000
vn -1.000000 0.000000 0.000000
vn -1.000000 0.000000 0.000000
vn 0.000000 0.000000 1.000000
vn 0.000000 0.000000 1.000000
vn 0.000000 0.000000 1.000000
vn 0.000000 0.000000 1.000000
vn 0.000000 1.000000 0.000000
vn 0.000000 1.000000 0.000000
vn 0.000000 1.000000 0.000000
vn 0.000000 1.000000 0.000000
vn 0.000000 0.000000 -1.000000
vn 0.000000 0.000000 -1.000000
vn 0.000000 0.000000 -1.000000
vn 0.000000 0.000000 -1.000000
vn 0.000000 -1.000000 0.000000
vn 0.000000 -1.000000 0.000000
vn 0.000000 -1.000000 0.000000
vn 0.000000 -1.000000 0.000000
vn 1.000000 0.000000 0.000000
vn 1.000000 0.000000 0.000000
vn 1.000000 0.000000 0.000000
vn 1.000000 0.000000 0.000000
vn -1.000000 0.000000 0.000000
vn -1.000000 0.000000 0.000000
vn -1.000000 0.000000 0.000000
vn -1.000000 0.000000 0.000000
vn 0.000000 0.000000 1.000000
vn 0.000000 0.000000 1.000000
vn 0.000000 0.000000 1.000000
vn 0.000000 0.000000 1.000000
vn 0.000000 1.000000 0.000000
vn 0.000000 1.000000 0.000000
vn 0.000000 1.000000 0.000000
vn 0.000000 1.000000 0.000000
vn 0.000000 0.000000 -1.000000
vn 0.000000 0.000000 -1.000000
vn 0.000000 0.000000 -1.000000
vn 0.000000 0.000000 -1.000000
vn 0.000000 -1.000000 0.000000
vn 0.000000 -1.000000 0.000000
vn 0.000000 -1.000000 0.000000
vn 0.000000 -1.000000 0.000000
vn 1.000000 0.000000 0.000000
vn 1.000000 0.000000 0.000000
vn 1.000000 0.000000 0.000000
vn 1.000000 0.000000 0.000000
vn -1.000000 0.000000 0.000000
vn -1.000000 0.000000 0.000000
vn -1.000000 0.000000 0.000000
vn -1.000000 0.000000 0.000000
vn 0.000000 -1.000000 -0.000000
vn 0.000000 -1.000000 -0.000000
vn 0.000000 -1.000000 -0.000000
vn 0.000000 -1.000000 -0.000000
vn 0.000000 -1.000000 0.000000
vn 0.000000 -1.000000 0.000000
vn 0.000000 -1.000000 0.000000
vn 0.000000 -1.000000 0.000000
vn 0.000000 -1.000000 0.000000
vn 0.000000 -1.000000 0.000000
vn 0.000000 -1.000000 0.000000
vn 0.000000 -1.000000 0.000000
vn 0.000000 -1.000000 0.000000
vn 0.000000 -1.000000 0.000000
vn 0.000000 -1.000000 0.000000
vn 0.000000 -1.000000 0.000000
vn 0.000000 0.000000 -1.000000
vn 0.000000 0.000000 -1.000000
vn 0.000000 0.000000 -1.000000
vn 0.000000 0.000000 -1.000000
vn 1.000000 0.000000 0.000000
vn 1.000000 0.000000 0.000000
vn 1.000000 0.000000 0.000000
vn 1.000000 0.000000 0.000000
vn 0.000000 0.000000 1.000000
vn 0.000000 0.000000 1.000000
vn 0.000000 0.000000 1.000000
vn 0.000000 0.000000 1.000000
vn -1.000000 0.000000 0.000000
vn -1.000000 0.000000 0.000000
vn -1.000000 0.000000 0.000000
vn -1.000000 0.000000 0.000000
vn 0.000000 0.000000 1.000000
vn 0.000000 0.000000 1.000000
vn 0.000000 0.000000 1.000000
vn 0.000000 0.000000 1.000000
vn 0.000000 1.000000 0.000000
vn 0.000000 1.000000 0.000000
vn 0.000000 1.000000 0.000000
vn 0.000000 1.000000 0.000000
vn 0.000000 0.000000 -1.000000
vn 0.000000 0.000000 -1.000000
vn 0.000000 0.000000 -1.000000
vn 0.000000 0.000000 -1.000000
vn 0.000000 -1.000000 0.000000
vn 0.000000 -1.000000 0.000000
vn 0.000000 -1.000000 0.000000
vn 0.000000 -1.000000 0.000000
vn 1.000000 0.000000 0.000000
vn 1.000000 0.000000 0.000000
vn 1.000000 0.000000 0.000000
vn 1.000000 0.000000 0.000000
vn -1.000000 0.000000 0.000000
vn -1.000000 0.000000 0.000000
vn -1.000000 0.000000 0.000000
vn -1.000000 0.000000 0.000000
vn 0.000000 0.000000 1.000000
vn 0.000000 0.000000 1.000000
vn 0.000000 0.000000 1.000000
vn 0.000000 0.000000 1.000000
vn 0.000000 1.000000 0.000000
vn 0.000000 1.000000 0.000000
vn 0.000000 1.000000 0.000000
vn 0.000000 1.000000 0.000000
vn 0.000000 0.000000 -1.000000
vn 0.000000 0.000000 -1.000000
vn 0.000000 0.000000 -1.000000
vn 0.000000 0.000000 -1.000000
vn 0.000000 -1.000000 0.000000
vn 0.000000 -1.000000 0.000000
vn 0.000000 -1.000000 0.000000
vn 0.000000 -1.000000 0.000000
vn 1.000000 0.000000 0.000000
vn 1.000000 0.000000 0.000000
vn 1.000000 0.000000 0.000000
vn 1.000000 0.000000 0.000000
vn -1.000000 0.000000 0.000000
vn -1.000000 0.000000 0.000000
vn -1.000000 0.000000 0.000000
vn -1.000000 0.000000 0.000000
s off
g pCube6
usemtl initialShadingGroup
f 1/85/1 2/2/2 4/84/3 3/3/4
f 3/3/5 4/84/6 6/6/7 5/5/8
f 5/5/9 6/6/10 8/8/11 7/7/12
f 7/7/13 8/8/14 2/10/15 1/9/16
f 2/83/17 8/8/18 6/6/19 4/4/20
f 7/7/21 1/1/22 3/86/23 5/5/24
f 9/81/25 10/12/26 12/80/27 11/14/28
f 11/14/29 12/80/30 14/15/31 13/16/32
f 13/16/33 14/15/34 16/17/35 15/18/36
f 15/18/37 16/17/38 10/19/39 9/20/40
f 10/79/41 16/17/42 14/15/43 12/13/44
f 15/18/45 9/11/46 11/82/47 13/16/48
f 17/21/49 18/22/50 20/23/51 19/24/52
f 19/24/53 20/23/54 22/25/55 21/26/56
f 21/26/57 22/25/58 24/64/59 23/28/60
f 29/29/61 30/30/62 31/31/63 32/32/64
f 18/22/65 24/33/66 22/34/67 20/23/68
f 23/35/69 17/21/70 19/24/71 21/36/72
f 23/28/73 24/64/74 26/63/75 25/38/76
f 24/27/77 18/69/78 27/66/79 26/37/80
f 18/39/81 17/68/82 28/65/83 27/40/84
f 17/41/85 23/70/86 25/67/87 28/42/88
f 25/38/89 26/63/90 30/30/91 29/29/92
f 26/37/93 27/66/94 31/31/95 30/30/96
f 27/40/97 28/65/98 32/32/99 31/31/100
f 28/42/101 25/67/102 29/29/103 32/32/104
f 33/77/105 34/44/106 36/76/107 35/46/108
f 35/46/109 36/76/110 38/47/111 37/48/112
f 37/48/113 38/47/114 40/49/115 39/50/116
f 39/50/117 40/49/118 34/51/119 33/52/120
f 34/75/121 40/49/122 38/47/123 36/45/124
f 39/50/125 33/43/126 35/78/127 37/48/128
f 41/73/129 42/54/130 44/72/131 43/56/132
f 43/56/133 44/72/134 46/57/135 45/58/136
f 45/58/137 46/57/138 48/59/139 47/60/140
f 47/60/141 48/59/142 42/61/143 41/62/144
f 42/71/145 48/59/146 46/57/147 44/55/148
f 47/60/149 41/53/150 43/74/151 45/58/152
