# This file uses centimeters as units for non-parametric coordinates.

mtllib Moniter.mtl
g default
v 0.283920 -1.664535 0.111951
v 0.574677 -1.664535 0.111951
v 0.283920 -0.636692 0.111951
v 0.574677 -0.636692 0.111951
v 0.283920 -0.636692 -0.245828
v 0.574677 -0.636692 -0.245828
v 0.283920 -1.664535 -0.245828
v 0.574677 -1.664535 -0.245828
vt 0.577603 0.045242
vt 0.695938 0.045242
vt 0.577603 0.163578
vt 0.695938 0.163578
vt 0.577603 0.281913
vt 0.695938 0.281913
vt 0.577603 0.400249
vt 0.695938 0.400249
vt 0.577603 0.518585
vt 0.695938 0.518585
vt 0.814274 0.045242
vt 0.814274 0.163578
vt 0.459267 0.045242
vt 0.459267 0.163578
vn 0.000000 0.000000 1.000000
vn 0.000000 0.000000 1.000000
vn 0.000000 0.000000 1.000000
vn 0.000000 0.000000 1.000000
vn 0.000000 1.000000 0.000000
vn 0.000000 1.000000 0.000000
vn 0.000000 1.000000 0.000000
vn 0.000000 1.000000 0.000000
vn 0.000000 0.000000 -1.000000
vn 0.000000 0.000000 -1.000000
vn 0.000000 0.000000 -1.000000
vn 0.000000 0.000000 -1.000000
vn 0.000000 -1.000000 0.000000
vn 0.000000 -1.000000 0.000000
vn 0.000000 -1.000000 0.000000
vn 0.000000 -1.000000 0.000000
vn 1.000000 0.000000 0.000000
vn 1.000000 0.000000 0.000000
vn 1.000000 0.000000 0.000000
vn 1.000000 0.000000 0.000000
vn -1.000000 0.000000 0.000000
vn -1.000000 0.000000 0.000000
vn -1.000000 0.000000 0.000000
vn -1.000000 0.000000 0.000000
s off
g pCube27 Moniter
usemtl initialShadingGroup
f 1/1/1 2/2/2 4/4/3 3/3/4
f 3/3/5 4/4/6 6/6/7 5/5/8
f 5/5/9 6/6/10 8/8/11 7/7/12
f 7/7/13 8/8/14 2/10/15 1/9/16
f 2/2/17 8/11/18 6/12/19 4/4/20
f 7/13/21 1/1/22 3/3/23 5/14/24
g default
v 0.179651 -0.688476 0.264582
v 0.649029 -0.688476 0.264582
v 0.179651 0.150363 0.264582
v 0.649029 0.150363 0.264582
v 0.179651 0.150363 -0.358361
v 0.649029 0.150363 -0.358361
v 0.179651 -0.688476 -0.358361
v 0.649029 -0.688476 -0.358361
vt 0.467756 0.612198
vt 0.371141 0.610664
vt 0.469290 0.515583
vt 0.372675 0.514050
vt 0.470823 0.418969
vt 0.374209 0.417435
vt 0.472357 0.322354
vt 0.375742 0.320820
vt 0.473891 0.225740
vt 0.377276 0.224206
vt 0.274527 0.609131
vt 0.276061 0.512516
vt 0.564371 0.613732
vt 0.565904 0.517117
vn 0.000000 0.000000 1.000000
vn 0.000000 0.000000 1.000000
vn 0.000000 0.000000 1.000000
vn 0.000000 0.000000 1.000000
vn 0.000000 1.000000 0.000000
vn 0.000000 1.000000 0.000000
vn 0.000000 1.000000 0.000000
vn 0.000000 1.000000 0.000000
vn 0.000000 0.000000 -1.000000
vn 0.000000 0.000000 -1.000000
vn 0.000000 0.000000 -1.000000
vn 0.000000 0.000000 -1.000000
vn 0.000000 -1.000000 0.000000
vn 0.000000 -1.000000 0.000000
vn 0.000000 -1.000000 0.000000
vn 0.000000 -1.000000 0.000000
vn 1.000000 0.000000 0.000000
vn 1.000000 0.000000 0.000000
vn 1.000000 0.000000 0.000000
vn 1.000000 0.000000 0.000000
vn -1.000000 0.000000 0.000000
vn -1.000000 0.000000 0.000000
vn -1.000000 0.000000 0.000000
vn -1.000000 0.000000 0.000000
s off
g Moniter pCube26
usemtl initialShadingGroup
f 9/15/25 10/16/26 12/18/27 11/17/28
f 11/17/29 12/18/30 14/20/31 13/19/32
f 13/19/33 14/20/34 16/22/35 15/21/36
f 15/21/37 16/22/38 10/24/39 9/23/40
f 10/16/41 16/25/42 14/26/43 12/18/44
f 15/27/45 9/15/46 11/17/47 13/28/48
g default
v 0.859521 -1.016946 1.765437
v 1.114961 -1.016946 1.765437
v 0.859521 1.016946 1.765437
v 1.114961 1.016946 1.765437
v 0.859521 1.016946 -1.819275
v 1.114961 1.016946 -1.819275
v 0.859521 -1.016946 -1.819275
v 1.114961 -1.016946 -1.819275
v 0.645439 -0.722703 -1.300674
v 0.645439 -0.722703 1.246837
v 0.645439 0.722703 1.246837
v 0.645439 0.722703 -1.300674
vt 0.175229 0.043017
vt 0.283715 0.043017
vt 0.175229 0.151502
vt 0.283715 0.151502
vt 0.175229 0.259988
vt 0.283715 0.259988
vt 0.175229 0.368474
vt 0.283715 0.368474
vt 0.175229 0.476960
vt 0.283715 0.476960
vt 0.392200 0.043017
vt 0.392200 0.151502
vt 0.066743 0.043017
vt 0.066743 0.151502
vt 0.066743 0.043017
vt 0.175229 0.043017
vt 0.175229 0.151502
vt 0.066743 0.151502
vn -0.686952 -0.000000 0.726703
vn 0.000000 0.000000 1.000000
vn 0.000000 0.000000 1.000000
vn -0.686952 -0.000000 0.726703
vn -0.472653 0.881249 0.000000
vn 0.000000 1.000000 0.000000
vn 0.000000 1.000000 0.000000
vn -0.472653 0.881249 0.000000
vn -0.686952 -0.000000 -0.726703
vn 0.000000 0.000000 -1.000000
vn 0.000000 0.000000 -1.000000
vn -0.686952 -0.000000 -0.726703
vn -0.472652 -0.881249 0.000000
vn 0.000000 -1.000000 0.000000
vn 0.000000 -1.000000 0.000000
vn -0.472652 -0.881249 0.000000
vn 1.000000 0.000000 0.000000
vn 1.000000 0.000000 0.000000
vn 1.000000 0.000000 0.000000
vn 1.000000 0.000000 0.000000
vn -1.000000 -0.000000 0.000000
vn -1.000000 -0.000000 0.000000
vn -1.000000 -0.000000 0.000000
vn -1.000000 -0.000000 0.000000
vn -0.808623 -0.588328 0.000000
vn -0.808623 -0.588328 0.000000
vn -0.924338 -0.000000 0.381574
vn -0.924338 -0.000000 0.381574
vn -0.808623 0.588328 0.000000
vn -0.808623 0.588328 0.000000
vn -0.924338 -0.000000 -0.381574
vn -0.924338 -0.000000 -0.381574
s 1
g Moniter pCube25
usemtl initialShadingGroup
f 17/29/49 18/30/50 20/32/51 19/31/52
s 2
f 19/31/53 20/32/54 22/34/55 21/33/56
s 3
f 21/33/57 22/34/58 24/36/59 23/35/60
s 4
f 23/35/61 24/36/62 18/38/63 17/37/64
s off
f 18/30/65 24/39/66 22/40/67 20/32/68
f 25/43/69 26/44/70 27/45/71 28/46/72
s 4
f 23/41/61 17/29/64 26/44/73 25/43/74
s 1
f 17/29/49 19/31/52 27/45/75 26/44/76
s 2
f 19/31/53 21/42/56 28/46/77 27/45/78
s 3
f 21/42/57 23/41/60 25/43/79 28/46/80
g default
v 1.503688 -1.815781 -0.636945
v 1.190893 -1.815781 -0.720758
v 0.878097 -1.815781 -0.636945
v 0.713968 -1.815781 -0.407963
v 0.660479 -1.815781 -0.095167
v 0.713968 -1.815781 0.217628
v 0.878097 -1.815781 0.446610
v 1.190893 -1.815781 0.530424
v 1.503688 -1.815781 0.446610
v 1.690893 -1.815781 -0.961193
v 1.190893 -1.815781 -1.095167
v 0.690893 -1.815781 -0.961193
v 0.324867 -1.815781 -0.595167
v 0.190893 -1.815781 -0.095167
v 0.324867 -1.815781 0.404833
v 0.690893 -1.815781 0.770858
v 1.190893 -1.815781 0.904833
v 1.690893 -1.815781 0.770858
v 1.690893 -1.607465 -0.961193
v 1.190893 -1.607465 -1.095167
v 0.690893 -1.607465 -0.961193
v 0.324867 -1.607465 -0.595167
v 0.190893 -1.607465 -0.095167
v 0.324867 -1.607465 0.404833
v 0.690893 -1.607465 0.770858
v 1.190893 -1.607465 0.904833
v 1.690893 -1.607465 0.770858
v 1.503688 -1.607465 -0.636945
v 1.190893 -1.607465 -0.720758
v 0.878097 -1.607465 -0.636945
v 0.713968 -1.607465 -0.407963
v 0.660479 -1.607465 -0.095167
v 0.713968 -1.607465 0.217628
v 0.878097 -1.607465 0.446610
v 1.190893 -1.607465 0.530424
v 1.503688 -1.607465 0.446610
vt 0.946208 0.404728
vt 0.946791 0.360348
vt 0.947354 0.315971
vt 0.947842 0.277369
vt 0.948396 0.233899
vt 0.948970 0.190443
vt 0.949511 0.151869
vt 0.950162 0.107521
vt 0.950820 0.063154
vt 0.194005 0.597176
vt 0.162768 0.724675
vt 0.199457 0.850709
vt 0.294247 0.941516
vt 0.421752 0.972764
vt 0.547821 0.936081
vt 0.638691 0.841271
vt 0.670013 0.713709
vt 0.935526 0.901903
vt 0.944546 0.454127
vt 0.942948 0.518140
vt 0.941491 0.578760
vt 0.940185 0.636513
vt 0.939020 0.691972
vt 0.937994 0.745733
vt 0.937088 0.798322
vt 0.936277 0.850282
vt 0.917996 0.453768
vt 0.917860 0.517799
vt 0.917660 0.578434
vt 0.917393 0.636203
vt 0.917032 0.691670
vt 0.916585 0.745439
vt 0.916043 0.798032
vt 0.915429 0.849997
vt 0.914762 0.901617
vt 0.195209 0.593410
vt 0.162608 0.720613
vt 0.197979 0.847066
vt 0.291825 0.938890
vt 0.419001 0.971503
vt 0.545449 0.936174
vt 0.637301 0.842351
vt 0.669938 0.715153
vt 0.634605 0.588660
vt 0.914259 0.938897
vt 0.921625 0.107103
vt 0.920979 0.151461
vt 0.920439 0.190054
vt 0.919861 0.233527
vt 0.919301 0.277004
vt 0.918810 0.315608
vt 0.918247 0.359980
vt 0.917673 0.404342
vt 0.257580 0.719577
vt 0.277976 0.640002
vt 0.279704 0.798686
vt 0.338240 0.839687
vt 0.417724 0.852402
vt 0.496915 0.837991
vt 0.554547 0.795742
vt 0.574952 0.716165
vt 0.575011 0.715698
vt 0.555425 0.795524
vt 0.498229 0.838408
vt 0.419193 0.853686
vt 0.339589 0.841841
vt 0.280642 0.801481
vt 0.257694 0.722634
vt 0.277237 0.642869
vt 0.552088 0.636753
vt 0.922276 0.062737
vt 0.552837 0.637025
vt 0.633391 0.587548
vt 0.935006 0.939181
vn 0.000000 -1.000000 0.000000
vn 0.000000 -1.000000 0.000000
vn 0.000000 -1.000000 0.000000
vn 0.000000 -1.000000 0.000000
vn 0.000000 -1.000000 0.000000
vn 0.000000 -1.000000 0.000000
vn 0.000000 -1.000000 0.000000
vn 0.000000 -1.000000 0.000000
vn 0.000000 -1.000000 0.000000
vn 0.000000 -1.000000 0.000000
vn 0.000000 -1.000000 0.000000
vn 0.000000 -1.000000 0.000000
vn 0.000000 -1.000000 0.000000
vn 0.000000 -1.000000 0.000000
vn 0.000000 -1.000000 0.000000
vn 0.000000 -1.000000 0.000000
vn 0.000000 -1.000000 0.000000
vn 0.000000 -1.000000 0.000000
vn 0.258819 0.000000 -0.965926
vn 0.258819 0.000000 -0.965926
vn 0.258819 0.000000 -0.965926
vn 0.258819 0.000000 -0.965926
vn -0.258819 0.000000 -0.965926
vn -0.258819 0.000000 -0.965926
vn -0.258819 0.000000 -0.965926
vn -0.258819 0.000000 -0.965926
vn -0.707107 0.000000 -0.707107
vn -0.707107 0.000000 -0.707107
vn -0.707107 0.000000 -0.707107
vn -0.707107 0.000000 -0.707107
vn -0.965926 0.000000 -0.258819
vn -0.965926 0.000000 -0.258819
vn -0.965926 0.000000 -0.258819
vn -0.965926 0.000000 -0.258819
vn -0.965926 0.000000 0.258819
vn -0.965926 0.000000 0.258819
vn -0.965926 0.000000 0.258819
vn -0.965926 0.000000 0.258819
vn -0.707107 0.000000 0.707107
vn -0.707107 0.000000 0.707107
vn -0.707107 0.000000 0.707107
vn -0.707107 0.000000 0.707107
vn -0.258819 0.000000 0.965926
vn -0.258819 0.000000 0.965926
vn -0.258819 0.000000 0.965926
vn -0.258819 0.000000 0.965926
vn 0.258819 0.000000 0.965926
vn 0.258819 0.000000 0.965926
vn 0.258819 0.000000 0.965926
vn 0.258819 0.000000 0.965926
vn 0.000000 1.000000 0.000000
vn 0.000000 1.000000 0.000000
vn 0.000000 1.000000 0.000000
vn 0.000000 1.000000 0.000000
vn 0.000000 1.000000 0.000000
vn 0.000000 1.000000 0.000000
vn 0.000000 1.000000 0.000000
vn 0.000000 1.000000 0.000000
vn 0.000000 1.000000 -0.000000
vn 0.000000 1.000000 -0.000000
vn 0.000000 1.000000 -0.000000
vn 0.000000 1.000000 -0.000000
vn 0.000000 1.000000 0.000000
vn 0.000000 1.000000 0.000000
vn 0.000000 1.000000 0.000000
vn 0.000000 1.000000 0.000000
vn 0.000000 1.000000 0.000000
vn 0.000000 1.000000 0.000000
vn -0.258819 0.000000 -0.965926
vn -0.258819 0.000000 -0.965926
vn -0.258819 0.000000 -0.965926
vn -0.258819 0.000000 -0.965926
vn 0.258819 0.000000 -0.965926
vn 0.258819 0.000000 -0.965926
vn 0.258819 0.000000 -0.965926
vn 0.258819 0.000000 -0.965926
vn 0.812775 0.000000 -0.582578
vn 0.812775 0.000000 -0.582578
vn 0.812775 0.000000 -0.582578
vn 0.812775 0.000000 -0.582578
vn 0.985692 0.000000 -0.168558
vn 0.985692 0.000000 -0.168558
vn 0.985692 0.000000 -0.168558
vn 0.985692 0.000000 -0.168558
vn 0.985692 0.000000 0.168558
vn 0.985692 0.000000 0.168558
vn 0.985692 0.000000 0.168558
vn 0.985692 0.000000 0.168558
vn 0.812775 0.000000 0.582578
vn 0.812775 0.000000 0.582578
vn 0.812775 0.000000 0.582578
vn 0.812775 0.000000 0.582578
vn 0.258819 0.000000 0.965926
vn 0.258819 0.000000 0.965926
vn 0.258819 0.000000 0.965926
vn 0.258819 0.000000 0.965926
vn -0.258819 0.000000 0.965926
vn -0.258819 0.000000 0.965926
vn -0.258819 0.000000 0.965926
vn -0.258819 0.000000 0.965926
vn 0.866025 0.000000 0.500000
vn 0.866025 0.000000 0.500000
vn 0.866025 0.000000 0.500000
vn 0.866025 0.000000 0.500000
vn 0.866025 0.000000 -0.500000
vn 0.866025 0.000000 -0.500000
vn 0.866025 0.000000 -0.500000
vn 0.866025 0.000000 -0.500000
s 1
g Moniter pCylinder9
usemtl initialShadingGroup
f 29/115/81 30/114/82 39/57/83 38/56/84
f 30/114/82 31/113/85 40/58/86 39/57/83
f 31/113/85 32/112/87 41/59/88 40/58/86
f 32/112/87 33/111/89 42/60/90 41/59/88
f 33/111/89 34/110/91 43/61/92 42/60/90
f 34/110/91 35/109/93 44/62/94 43/61/92
f 35/109/93 36/108/95 45/63/96 44/62/94
f 36/108/95 37/116/97 46/119/98 45/63/96
s off
f 38/65/99 39/66/100 48/74/101 47/73/102
f 39/66/103 40/67/104 49/75/105 48/74/106
f 40/67/107 41/68/108 50/76/109 49/75/110
f 41/68/111 42/69/112 51/77/113 50/76/114
f 42/69/115 43/70/116 52/78/117 51/77/118
f 43/70/119 44/71/120 53/79/121 52/78/122
f 44/71/123 45/72/124 54/80/125 53/79/126
f 45/72/127 46/64/128 55/81/129 54/80/130
s 2
f 47/90/131 48/89/132 57/107/133 56/118/134
f 48/89/132 49/88/135 58/106/136 57/107/133
f 49/88/135 50/87/137 59/105/138 58/106/136
f 50/87/137 51/86/139 60/104/140 59/105/138
f 51/86/139 52/85/141 61/103/142 60/104/140
f 52/85/141 53/84/143 62/102/144 61/103/142
f 53/84/143 54/83/145 63/100/146 62/102/144
f 54/83/145 55/82/147 64/101/148 63/100/146
s off
f 37/55/149 36/54/150 63/92/151 64/117/152
f 36/54/153 35/53/154 62/93/155 63/92/156
f 35/53/157 34/52/158 61/94/159 62/93/160
f 34/52/161 33/51/162 60/95/163 61/94/164
f 33/51/165 32/50/166 59/96/167 60/95/168
f 32/50/169 31/49/170 58/97/171 59/96/172
f 31/49/173 30/48/174 57/98/175 58/97/176
f 30/48/177 29/47/178 56/99/179 57/98/180
f 38/65/181 47/73/182 56/99/183 29/47/184
f 46/64/185 37/120/186 64/91/187 55/81/188
