# This file uses centimeters as units for non-parametric coordinates.

mtllib Newspaper.mtl
g default
v -0.499357 -0.044266 0.577581
v 0.499357 -0.044266 0.577581
v -0.499357 0.032930 0.577581
v 0.499357 0.032930 0.577581
v -0.499357 0.044265 -0.577581
v 0.499357 0.044265 -0.577581
v -0.499357 -0.044266 -0.577581
v 0.499357 -0.044266 -0.577581
v -0.499357 -0.002071 0.577581
v 0.499357 -0.002071 0.577581
v 0.499357 0.017725 -0.596904
v -0.499357 0.017725 -0.596904
v -0.499357 0.002242 0.577581
v 0.499357 0.002242 0.577581
v 0.499357 -0.009152 -0.596904
v -0.499357 -0.009152 -0.596904
v -0.499357 0.044265 -0.549438
v 0.499357 0.044265 -0.549438
v 0.499357 0.017725 -0.568290
v 0.499357 -0.009152 -0.568290
v 0.499357 -0.044266 -0.549437
v -0.499357 -0.044266 -0.549437
v -0.499357 -0.009152 -0.568290
v -0.499357 0.017725 -0.568290
v 0.499357 0.004489 -0.600007
v 0.499357 0.004489 -0.571393
v -0.499357 0.004489 -0.571393
v -0.499357 0.004489 -0.600007
vt 0.766728 0.095273
vt 0.920746 0.286992
vt 0.394423 0.462299
vt 0.537198 0.617008
vt 0.215294 0.627476
vt 0.358225 0.782360
vt 0.199693 0.641866
vt 0.342652 0.796767
vt 0.020478 0.807235
vt 0.163404 0.962188
vt 0.724761 0.458587
vt 0.719719 0.459305
vt 0.567090 0.287711
vt 0.566396 0.292949
vt 0.399525 0.462776
vt 0.537131 0.611884
vt 0.353139 0.787065
vt 0.719375 0.456187
vt 0.569370 0.293670
vt 0.210196 0.632174
vt 0.766728 0.128103
vt 0.913195 0.286158
vt 0.348866 0.791022
vt 0.719526 0.456395
vt 0.569068 0.293525
vt 0.205915 0.636125
vt 0.562135 0.295371
vt 0.219665 0.623452
vt 0.362586 0.778329
vt 0.717034 0.463216
vt 0.716378 0.456459
vt 0.721055 0.452750
vt 0.338287 0.800798
vt 0.729477 0.455834
vt 0.570379 0.282995
vt 0.195321 0.645894
vt 0.572894 0.292201
vt 0.568820 0.296568
vt 0.351031 0.789017
vt 0.719257 0.456117
vt 0.718663 0.454618
vt 0.570839 0.294438
vt 0.569434 0.293770
vt 0.208087 0.634124
vn 0.000000 0.000000 1.000000
vn 0.000000 0.000000 1.000000
vn 0.000000 0.000000 1.000000
vn 0.000000 0.000000 1.000000
vn 0.000000 0.999952 0.009812
vn 0.000000 0.999952 0.009812
vn 0.000000 1.000000 0.000000
vn 0.000000 1.000000 0.000000
vn 0.000000 0.588588 -0.808433
vn 0.000000 0.588588 -0.808433
vn 0.000000 0.491133 -0.871085
vn 0.000000 0.491133 -0.871085
vn 0.000000 -1.000000 0.000000
vn 0.000000 -1.000000 0.000000
vn 0.000000 -1.000000 0.000000
vn 0.000000 -1.000000 0.000000
vn 1.000000 0.000000 0.000000
vn 1.000000 0.000000 0.000000
vn 1.000000 0.000000 0.000000
vn 1.000000 0.000000 0.000000
vn -1.000000 0.000000 0.000000
vn -1.000000 0.000000 0.000000
vn -1.000000 0.000000 0.000000
vn -1.000000 0.000000 0.000000
vn 1.000000 0.000000 0.000000
vn 1.000000 0.000000 0.000000
vn 1.000000 0.000000 0.000000
vn 1.000000 0.000000 0.000000
vn 0.000000 0.000000 -1.000000
vn 0.000000 0.000000 -1.000000
vn 0.000000 -0.417893 -0.908496
vn 0.000000 -0.417893 -0.908496
vn -1.000000 0.000000 0.000000
vn -1.000000 0.000000 0.000000
vn -1.000000 0.000000 0.000000
vn -1.000000 0.000000 0.000000
vn 0.000000 0.000000 1.000000
vn 0.000000 0.000000 1.000000
vn 0.000000 0.000000 1.000000
vn 0.000000 0.000000 1.000000
vn 1.000000 0.000000 0.000000
vn 1.000000 0.000000 0.000000
vn 0.000000 -0.482123 -0.876104
vn 0.000000 -0.482123 -0.876104
vn -1.000000 0.000000 0.000000
vn -1.000000 0.000000 0.000000
vn 0.000000 0.999949 0.010057
vn 0.000000 0.999949 0.010057
vn 1.000000 0.000000 0.000000
vn 1.000000 0.000000 0.000000
vn 1.000000 0.000000 0.000000
vn 1.000000 0.000000 0.000000
vn 0.000000 -1.000000 0.000000
vn 0.000000 -1.000000 0.000000
vn -1.000000 0.000000 0.000000
vn -1.000000 0.000000 0.000000
vn -1.000000 0.000000 0.000000
vn -1.000000 0.000000 0.000000
vn -0.000000 0.999951 -0.009943
vn -0.000000 0.999951 -0.009943
vn -0.000000 0.999951 -0.009943
vn -0.000000 0.999951 -0.009943
vn -0.000000 -0.999851 -0.017273
vn -0.000000 -0.999851 -0.017273
vn -0.000000 -0.999851 -0.017273
vn -0.000000 -0.999851 -0.017273
vn 0.000000 0.221822 0.975087
vn 0.000000 0.221822 0.975087
vn 0.000000 0.000000 1.000000
vn 0.000000 0.000000 1.000000
vn 0.000000 -0.228273 0.973597
vn 0.000000 -0.228273 0.973597
s off
g Newspaper
usemtl initialShadingGroup
f 9/15/1 10/16/2 4/4/3 3/3/4
s 1
f 17/28/5 18/29/6 6/6/7 5/5/8
s 2
f 5/5/9 6/6/10 11/17/11 12/20/12
s 3
f 7/7/13 8/8/14 21/33/15 22/36/16
s 4
f 18/30/17 19/31/18 11/18/19 6/12/20
s 5
f 12/19/21 24/38/22 17/27/23 5/14/24
s 4
f 25/40/25 26/41/26 20/32/27 15/24/28
s 2
f 28/44/29 25/39/30 15/23/31 16/26/32
s 5
f 16/25/33 23/37/34 27/42/35 28/43/36
s off
f 1/1/37 2/2/38 14/22/39 13/21/40
s 4
f 20/32/27 21/34/41 8/11/42 15/24/28
s 2
f 16/26/32 15/23/31 8/8/43 7/7/44
s 5
f 7/13/45 22/35/46 23/37/34 16/25/33
s 1
f 3/3/47 4/4/48 18/29/6 17/28/5
s 4
f 10/16/49 19/31/18 18/30/17 4/4/50
f 2/2/51 21/34/41 20/32/27 14/22/52
s 3
f 22/36/16 21/33/15 2/10/53 1/9/54
s 5
f 23/37/34 22/35/46 1/1/55 13/21/56
f 17/27/23 24/38/22 9/15/57 3/3/58
s off
f 14/22/59 20/32/60 23/37/61 13/21/62
f 19/31/63 10/16/64 9/15/65 24/38/66
s 7
f 23/37/67 20/32/68 26/41/69 27/42/70
s 4
f 19/31/18 26/41/26 25/40/25 11/18/19
s 7
f 27/42/70 26/41/69 19/31/71 24/38/72
s 5
f 28/43/36 27/42/35 24/38/22 12/19/21
s 2
f 12/20/12 11/17/11 25/39/30 28/44/29
