# This file uses centimeters as units for non-parametric coordinates.

mtllib PottedPlant.mtl
g default
v -0.027311 -0.020415 0.444414
v 0.154257 -0.020415 0.444414
v -0.027311 0.161153 0.444414
v 0.154257 0.161153 0.444414
v -0.027311 0.161153 0.262846
v 0.154257 0.161153 0.262846
v -0.027311 -0.020415 0.262846
v 0.154257 -0.020415 0.262846
v -0.059086 0.192928 0.353630
v 0.186032 0.070369 0.231072
v 0.063473 -0.052189 0.231072
v -0.059086 0.070369 0.231072
v 0.186032 -0.052189 0.353630
v -0.059086 -0.052189 0.353630
v 0.063473 -0.052189 0.476189
v 0.186032 0.070369 0.476189
v 0.063473 0.192928 0.476189
v -0.059086 0.070369 0.476189
v 0.186032 0.192928 0.353630
v 0.063473 0.192928 0.231072
v 0.063473 0.070369 0.517042
v 0.063473 0.233781 0.353630
v 0.063473 0.070369 0.190219
v 0.063473 -0.093042 0.353630
v 0.226885 0.070369 0.353630
v -0.099938 0.070369 0.353630
vt 0.582079 0.110019
vt 0.582079 0.842981
vt 0.765319 0.110019
vt 0.765319 0.842981
vt 0.582079 0.293260
vt 0.765319 0.293260
vt 0.582079 0.476500
vt 0.398838 0.293260
vt 0.765319 0.476500
vt 0.948560 0.293260
vt 0.582079 0.659741
vt 0.398838 0.110019
vt 0.765319 0.659741
vt 0.948560 0.110019
vt 0.673699 0.201639
vt 0.673699 0.384880
vt 0.673699 0.568121
vt 0.673699 0.751361
vt 0.856939 0.201639
vt 0.490458 0.201639
vt 0.673699 0.110019
vt 0.673699 0.842981
vt 0.765319 0.201639
vt 0.673699 0.293260
vt 0.582079 0.201639
vt 0.765319 0.384880
vt 0.856939 0.293260
vt 0.673699 0.476500
vt 0.582079 0.384880
vt 0.490458 0.293260
vt 0.765319 0.568121
vt 0.948560 0.201639
vt 0.673699 0.659741
vt 0.582079 0.568121
vt 0.398838 0.201639
vt 0.765319 0.751361
vt 0.856939 0.110019
vt 0.582079 0.751361
vt 0.490458 0.110019
vn -0.577350 -0.577350 0.577350
vn -0.000000 -0.707107 0.707107
vn 0.000000 0.000000 1.000000
vn -0.707107 0.000000 0.707107
vn 0.577350 -0.577350 0.577350
vn 0.707107 -0.000000 0.707107
vn 0.577350 0.577350 0.577350
vn 0.000000 0.707107 0.707107
vn -0.577350 0.577350 0.577350
vn 0.000000 1.000000 -0.000000
vn -0.707107 0.707107 -0.000000
vn 0.707107 0.707107 -0.000000
vn 0.577350 0.577350 -0.577350
vn -0.000000 0.707107 -0.707107
vn -0.577350 0.577350 -0.577350
vn -0.000000 0.000000 -1.000000
vn -0.707107 0.000000 -0.707107
vn 0.707107 -0.000000 -0.707107
vn 0.577350 -0.577350 -0.577350
vn 0.000000 -0.707107 -0.707107
vn -0.577350 -0.577350 -0.577350
vn -0.000000 -1.000000 0.000000
vn -0.707107 -0.707107 -0.000000
vn 0.707107 -0.707107 0.000000
vn 1.000000 -0.000000 0.000000
vn -1.000000 0.000000 -0.000000
s 1
g pCube8 PottedPlant
usemtl initialShadingGroup
f 1/1/1 15/21/2 21/15/3 18/25/4
f 15/21/2 2/3/5 16/23/6 21/15/3
f 21/15/3 16/23/6 4/6/7 17/24/8
f 18/25/4 21/15/3 17/24/8 3/5/9
f 3/5/9 17/24/8 22/16/10 9/29/11
f 17/24/8 4/6/7 19/26/12 22/16/10
f 22/16/10 19/26/12 6/9/13 20/28/14
f 9/29/11 22/16/10 20/28/14 5/7/15
f 5/7/15 20/28/14 23/17/16 12/34/17
f 20/28/14 6/9/13 10/31/18 23/17/16
f 23/17/16 10/31/18 8/13/19 11/33/20
f 12/34/17 23/17/16 11/33/20 7/11/21
f 7/11/21 11/33/20 24/18/22 14/38/23
f 11/33/20 8/13/19 13/36/24 24/18/22
f 24/18/22 13/36/24 2/4/5 15/22/2
f 14/38/23 24/18/22 15/22/2 1/2/1
f 2/3/5 13/37/24 25/19/25 16/23/6
f 13/37/24 8/14/19 10/32/18 25/19/25
f 25/19/25 10/32/18 6/10/13 19/27/12
f 16/23/6 25/19/25 19/27/12 4/6/7
f 7/12/21 14/39/23 26/20/26 12/35/17
f 14/39/23 1/1/1 18/25/4 26/20/26
f 26/20/26 18/25/4 3/5/9 9/30/11
f 12/35/17 26/20/26 9/30/11 5/8/15
g default
v 0.184996 -0.261997 0.279272
v 0.132020 -0.261997 0.226296
v 0.059653 -0.261997 0.206905
v -0.012713 -0.261997 0.226296
v -0.065689 -0.261997 0.279272
v -0.085080 -0.261997 0.351638
v -0.065689 -0.261997 0.424005
v -0.012713 -0.261997 0.476981
v 0.059653 -0.261997 0.496372
v 0.132020 -0.261997 0.476981
v 0.184996 -0.261997 0.424005
v 0.204386 -0.261997 0.351638
v 0.231981 0.027469 0.252145
v 0.159147 0.027469 0.179311
v 0.059653 0.027469 0.152652
v -0.039840 0.027469 0.179311
v -0.112674 0.027469 0.252145
v -0.139334 0.027469 0.351638
v -0.112674 0.027469 0.451132
v -0.039840 0.027469 0.523966
v 0.059653 0.027469 0.550625
v 0.159147 0.027469 0.523966
v 0.231981 0.027469 0.451132
v 0.258640 0.027469 0.351638
v 0.059653 -0.261997 0.351638
v 0.207727 0.027469 0.266148
v 0.145144 0.027469 0.203565
v 0.059653 0.027469 0.180657
v -0.025837 0.027469 0.203565
v -0.088421 0.027469 0.266148
v -0.111328 0.027469 0.351638
v -0.088421 0.027469 0.437129
v -0.025837 0.027469 0.499712
v 0.059653 0.027469 0.522619
v 0.145144 0.027469 0.499712
v 0.207727 0.027469 0.437129
v 0.230634 0.027469 0.351638
v 0.195312 0.009107 0.273316
v 0.137976 0.009107 0.215979
v 0.059653 0.039215 0.351638
v 0.059653 0.009107 0.194993
v -0.018670 0.009107 0.215979
v -0.076006 0.009107 0.273316
v -0.096992 0.009107 0.351638
v -0.076006 0.009107 0.429961
v -0.018670 0.009107 0.487297
v 0.059653 0.009107 0.508284
v 0.137976 0.009107 0.487297
v 0.195312 0.009107 0.429961
v 0.216299 0.009107 0.351638
v -0.008176 0.027563 0.312477
v -0.018669 0.027563 0.351638
v -0.008176 0.027563 0.390800
v 0.020492 0.027563 0.419468
v 0.059653 0.027563 0.429961
v 0.098815 0.027563 0.419468
v 0.127483 0.027563 0.390800
v 0.137976 0.027563 0.351638
v 0.127483 0.027563 0.312477
v 0.098815 0.027563 0.283809
v 0.059653 0.027563 0.273316
v 0.020492 0.027563 0.283809
vt 0.140384 0.053934
vt 0.117979 0.031339
vt 0.087374 0.023138
vt 0.056768 0.031339
vt 0.034364 0.053744
vt 0.026163 0.084349
vt 0.034364 0.114954
vt 0.056768 0.137359
vt 0.087374 0.145559
vt 0.117979 0.137359
vt 0.140384 0.114954
vt 0.148584 0.084539
vt 0.177447 0.570771
vt 0.187330 0.533753
vt 0.199817 0.496101
vt 0.209369 0.457773
vt 0.215735 0.419038
vt 0.219014 0.380100
vt 0.218889 0.341163
vt 0.215486 0.302600
vt 0.208619 0.264655
vt 0.198388 0.227618
vt 0.184766 0.191834
vt 0.167920 0.157561
vt 0.147829 0.125110
vt 0.309917 0.632962
vt 0.329400 0.585724
vt 0.345277 0.537056
vt 0.357413 0.487242
vt 0.365579 0.436472
vt 0.369618 0.385017
vt 0.369301 0.333228
vt 0.364469 0.281537
vt 0.355008 0.230378
vt 0.341005 0.180229
vt 0.322378 0.131488
vt 0.299229 0.084572
vt 0.271629 0.040008
vt 0.369449 0.722213
vt 0.305086 0.654459
vt 0.214524 0.628643
vt 0.123293 0.652235
vt 0.056355 0.718312
vt 0.031646 0.808906
vt 0.055608 0.899783
vt 0.121784 0.966464
vt 0.212794 0.990967
vt 0.303960 0.966330
vt 0.370058 0.898934
vt 0.392401 0.807872
vt 0.087374 0.084371
vt 0.212956 0.809617
vt 0.347761 0.886480
vt 0.291013 0.944182
vt 0.212782 0.965319
vt 0.134639 0.944325
vt 0.077782 0.887088
vt 0.057192 0.809020
vt 0.078426 0.731222
vt 0.135924 0.674497
vt 0.214225 0.654239
vt 0.291924 0.676261
vt 0.347496 0.733930
vt 0.367454 0.808642
vt 0.329877 0.876442
vt 0.280621 0.926384
vt 0.212778 0.944694
vt 0.144986 0.926502
vt 0.095626 0.876856
vt 0.077755 0.809110
vt 0.096195 0.741605
vt 0.146091 0.692395
vt 0.213996 0.674807
vt 0.281384 0.693797
vt 0.329808 0.743567
vt 0.347272 0.809077
vt 0.155366 0.842599
vt 0.146597 0.809403
vt 0.155656 0.776301
vt 0.180112 0.752172
vt 0.213361 0.743502
vt 0.246436 0.752591
vt 0.270448 0.776839
vt 0.279150 0.809630
vt 0.270297 0.842613
vt 0.246030 0.866901
vt 0.212811 0.875815
vt 0.179600 0.866915
vn 0.695796 -0.178145 -0.695796
vn 0.695796 -0.178144 -0.695796
vn 0.695796 -0.178144 -0.695796
vn 0.695796 -0.178144 -0.695796
vn 0.254679 -0.178145 -0.950475
vn 0.254679 -0.178145 -0.950475
vn 0.254679 -0.178145 -0.950475
vn 0.254679 -0.178145 -0.950475
vn -0.254679 -0.178145 -0.950475
vn -0.254679 -0.178145 -0.950475
vn -0.254679 -0.178145 -0.950475
vn -0.254679 -0.178145 -0.950475
vn -0.695796 -0.178145 -0.695796
vn -0.695796 -0.178145 -0.695796
vn -0.695796 -0.178145 -0.695796
vn -0.695796 -0.178145 -0.695796
vn -0.950475 -0.178145 -0.254679
vn -0.950475 -0.178145 -0.254679
vn -0.950475 -0.178145 -0.254679
vn -0.950475 -0.178145 -0.254679
vn -0.950475 -0.178144 0.254679
vn -0.950475 -0.178144 0.254679
vn -0.950475 -0.178144 0.254679
vn -0.950475 -0.178144 0.254679
vn -0.695796 -0.178145 0.695796
vn -0.695796 -0.178145 0.695796
vn -0.695796 -0.178145 0.695796
vn -0.695796 -0.178145 0.695796
vn -0.254679 -0.178145 0.950475
vn -0.254679 -0.178145 0.950475
vn -0.254679 -0.178145 0.950475
vn -0.254679 -0.178145 0.950475
vn 0.254679 -0.178145 0.950475
vn 0.254679 -0.178145 0.950475
vn 0.254679 -0.178145 0.950475
vn 0.254679 -0.178145 0.950475
vn 0.695796 -0.178144 0.695796
vn 0.695796 -0.178145 0.695796
vn 0.695796 -0.178145 0.695796
vn 0.695796 -0.178145 0.695796
vn 0.950475 -0.178144 0.254679
vn 0.950475 -0.178144 0.254679
vn 0.950475 -0.178144 0.254679
vn 0.950475 -0.178144 0.254679
vn 0.950475 -0.178145 -0.254679
vn 0.950475 -0.178145 -0.254679
vn 0.950475 -0.178145 -0.254679
vn 0.950475 -0.178145 -0.254679
vn 0.000000 -1.000000 0.000000
vn 0.000000 -1.000000 0.000000
vn 0.000000 -1.000000 0.000000
vn 0.000000 -1.000000 0.000000
vn 0.000000 -1.000000 0.000000
vn 0.000000 -1.000000 -0.000000
vn 0.000000 -1.000000 0.000000
vn 0.000000 -1.000000 0.000000
vn 0.000000 -1.000000 -0.000000
vn 0.000000 -1.000000 0.000000
vn 0.000000 -1.000000 0.000000
vn 0.000000 -1.000000 0.000000
vn 0.000000 -1.000000 0.000000
vn 0.185146 0.976880 -0.106894
vn 0.106894 0.976880 -0.185146
vn -0.000000 1.000000 -0.000000
vn 0.000000 0.976880 -0.213789
vn -0.106894 0.976880 -0.185146
vn -0.185146 0.976880 -0.106894
vn -0.213789 0.976880 0.000000
vn -0.185146 0.976880 0.106894
vn -0.106894 0.976880 0.185146
vn 0.000000 0.976880 0.213789
vn 0.106894 0.976880 0.185146
vn 0.185146 0.976880 0.106894
vn 0.213789 0.976880 -0.000000
vn 0.000000 1.000000 0.000000
vn 0.000000 1.000000 0.000000
vn 0.000000 1.000000 0.000000
vn 0.000000 1.000000 0.000000
vn 0.000000 1.000000 0.000000
vn 0.000000 1.000000 0.000000
vn 0.000000 1.000000 0.000000
vn 0.000000 1.000000 0.000000
vn 0.000000 1.000000 0.000000
vn 0.000000 1.000000 0.000000
vn 0.000000 1.000000 0.000000
vn 0.000000 1.000000 0.000000
vn 0.000000 1.000000 0.000000
vn 0.000000 1.000000 0.000000
vn 0.000000 1.000000 0.000000
vn 0.000000 1.000000 0.000000
vn 0.000000 1.000000 -0.000000
vn 0.000000 1.000000 -0.000000
vn 0.000000 1.000000 -0.000000
vn 0.000000 1.000000 -0.000000
vn 0.000000 1.000000 0.000000
vn 0.000000 1.000000 0.000000
vn 0.000000 1.000000 0.000000
vn 0.000000 1.000000 0.000000
vn 0.000000 1.000000 -0.000000
vn 0.000000 1.000000 -0.000000
vn 0.000000 1.000000 -0.000000
vn 0.000000 1.000000 -0.000000
vn 0.000000 1.000000 -0.000000
vn 0.000000 1.000000 -0.000000
vn 0.000000 1.000000 -0.000000
vn 0.000000 1.000000 -0.000000
vn 0.000000 1.000000 0.000000
vn 0.000000 1.000000 0.000000
vn 0.000000 1.000000 0.000000
vn 0.000000 1.000000 0.000000
vn 0.000000 1.000000 -0.000000
vn 0.000000 1.000000 -0.000000
vn 0.000000 1.000000 -0.000000
vn 0.000000 1.000000 -0.000000
vn 0.000000 1.000000 0.000000
vn 0.000000 1.000000 0.000000
vn 0.000000 1.000000 0.000000
vn 0.000000 1.000000 0.000000
vn 0.000000 1.000000 0.000000
vn 0.000000 1.000000 0.000000
vn 0.000000 1.000000 0.000000
vn 0.000000 1.000000 0.000000
vn -0.564568 0.602101 0.564568
vn -0.564568 0.602101 0.564568
vn -0.564568 0.602101 0.564568
vn -0.564568 0.602101 0.564568
vn -0.206647 0.602101 0.771215
vn -0.206646 0.602101 0.771215
vn -0.206646 0.602101 0.771215
vn -0.206646 0.602101 0.771215
vn 0.206646 0.602101 0.771215
vn 0.206647 0.602101 0.771215
vn 0.206646 0.602101 0.771215
vn 0.206646 0.602101 0.771215
vn 0.564568 0.602101 0.564568
vn 0.564568 0.602101 0.564568
vn 0.564568 0.602101 0.564568
vn 0.564568 0.602101 0.564568
vn 0.771215 0.602101 0.206647
vn 0.771214 0.602101 0.206647
vn 0.771214 0.602101 0.206647
vn 0.771214 0.602101 0.206647
vn 0.771215 0.602101 -0.206647
vn 0.771215 0.602101 -0.206647
vn 0.771215 0.602101 -0.206647
vn 0.771215 0.602101 -0.206647
vn 0.564568 0.602101 -0.564568
vn 0.564568 0.602101 -0.564568
vn 0.564568 0.602101 -0.564568
vn 0.564568 0.602101 -0.564568
vn 0.206646 0.602101 -0.771214
vn 0.206646 0.602101 -0.771214
vn 0.206646 0.602101 -0.771214
vn 0.206646 0.602101 -0.771214
vn -0.206646 0.602101 -0.771214
vn -0.206646 0.602101 -0.771214
vn -0.206646 0.602101 -0.771214
vn -0.206646 0.602101 -0.771214
vn -0.564568 0.602101 -0.564568
vn -0.564568 0.602102 -0.564568
vn -0.564568 0.602102 -0.564568
vn -0.564568 0.602102 -0.564568
vn -0.771214 0.602101 -0.206647
vn -0.771215 0.602101 -0.206647
vn -0.771214 0.602101 -0.206647
vn -0.771214 0.602101 -0.206647
vn -0.771214 0.602101 0.206647
vn -0.771214 0.602101 0.206647
vn -0.771214 0.602101 0.206647
vn -0.771214 0.602101 0.206647
vn -0.198627 0.973343 -0.114677
vn -0.229355 0.973343 0.000000
vn -0.198627 0.973343 0.114677
vn -0.114677 0.973343 0.198627
vn 0.000000 0.973343 0.229355
vn 0.114677 0.973343 0.198627
vn 0.198627 0.973343 0.114677
vn 0.229355 0.973343 -0.000000
vn 0.198627 0.973343 -0.114677
vn 0.114677 0.973343 -0.198627
vn 0.000000 0.973343 -0.229355
vn -0.114677 0.973343 -0.198627
s off
g PottedPlant pCylinder15
usemtl initialShadingGroup
f 27/52/27 28/53/28 40/66/29 39/65/30
f 28/53/31 29/54/32 41/67/33 40/66/34
f 29/54/35 30/55/36 42/68/37 41/67/38
f 30/55/39 31/56/40 43/69/41 42/68/42
f 31/56/43 32/57/44 44/70/45 43/69/46
f 32/57/47 33/58/48 45/71/49 44/70/50
f 33/58/51 34/59/52 46/72/53 45/71/54
f 34/59/55 35/60/56 47/73/57 46/72/58
f 35/60/59 36/61/60 48/74/61 47/73/62
f 36/61/63 37/62/64 49/75/65 48/74/66
f 37/62/67 38/63/68 50/76/69 49/75/70
f 38/63/71 27/64/72 39/77/73 50/76/74
s 1
f 28/41/75 27/40/76 51/90/77
f 29/42/78 28/41/75 51/90/77
f 30/43/79 29/42/78 51/90/77
f 31/44/80 30/43/79 51/90/77
f 32/45/81 31/44/80 51/90/77
f 33/46/82 32/45/81 51/90/77
f 34/47/83 33/46/82 51/90/77
f 35/48/84 34/47/83 51/90/77
f 36/49/85 35/48/84 51/90/77
f 37/50/86 36/49/85 51/90/77
f 38/51/87 37/50/86 51/90/77
f 27/40/76 38/51/87 51/90/77
s 2
f 85/124/88 86/125/89 66/91/90
f 86/125/89 87/126/91 66/91/90
f 87/126/91 88/127/92 66/91/90
f 88/127/92 77/116/93 66/91/90
f 77/116/93 78/117/94 66/91/90
f 78/117/94 79/118/95 66/91/90
f 79/118/95 80/119/96 66/91/90
f 80/119/96 81/120/97 66/91/90
f 81/120/97 82/121/98 66/91/90
f 82/121/98 83/122/99 66/91/90
f 83/122/99 84/123/100 66/91/90
f 84/123/100 85/124/88 66/91/90
s off
f 39/88/101 40/87/102 53/93/103 52/92/104
f 40/87/105 41/86/106 54/94/107 53/93/108
f 41/86/109 42/85/110 55/95/111 54/94/112
f 42/85/113 43/84/114 56/96/115 55/95/116
f 43/84/117 44/83/118 57/97/119 56/96/120
f 44/83/121 45/82/122 58/98/123 57/97/124
f 45/82/125 46/81/126 59/99/127 58/98/128
f 46/81/129 47/80/130 60/100/131 59/99/132
f 47/80/133 48/79/134 61/101/135 60/100/136
f 48/79/137 49/78/138 62/102/139 61/101/140
f 49/78/141 50/89/142 63/103/143 62/102/144
f 50/89/145 39/88/146 52/92/147 63/103/148
f 52/92/149 53/93/150 65/105/151 64/104/152
f 53/93/153 54/94/154 67/106/155 65/105/156
f 54/94/157 55/95/158 68/107/159 67/106/160
f 55/95/161 56/96/162 69/108/163 68/107/164
f 56/96/165 57/97/166 70/109/167 69/108/168
f 57/97/169 58/98/170 71/110/171 70/109/172
f 58/98/173 59/99/174 72/111/175 71/110/176
f 59/99/177 60/100/178 73/112/179 72/111/180
f 60/100/181 61/101/182 74/113/183 73/112/184
f 61/101/185 62/102/186 75/114/187 74/113/188
f 62/102/189 63/103/190 76/115/191 75/114/192
f 63/103/193 52/92/194 64/104/195 76/115/196
s 2
f 69/108/197 70/109/198 78/117/94 77/116/93
f 70/109/198 71/110/199 79/118/95 78/117/94
f 71/110/199 72/111/200 80/119/96 79/118/95
f 72/111/200 73/112/201 81/120/97 80/119/96
f 73/112/201 74/113/202 82/121/98 81/120/97
f 74/113/202 75/114/203 83/122/99 82/121/98
f 75/114/203 76/115/204 84/123/100 83/122/99
f 76/115/204 64/104/205 85/124/88 84/123/100
f 64/104/205 65/105/206 86/125/89 85/124/88
f 65/105/206 67/106/207 87/126/91 86/125/89
f 67/106/207 68/107/208 88/127/92 87/126/91
f 68/107/208 69/108/197 77/116/93 88/127/92
