# This file uses centimeters as units for non-parametric coordinates.

mtllib ToiletPaper.mtl
g default
v 0.209458 -1.000000 -0.068057
v 0.178175 -1.000000 -0.129452
v 0.129452 -1.000000 -0.178175
v 0.068057 -1.000000 -0.209458
v -0.000000 -1.000000 -0.220237
v -0.068057 -1.000000 -0.209458
v -0.129452 -1.000000 -0.178175
v -0.178175 -1.000000 -0.129452
v -0.209458 -1.000000 -0.068057
v -0.220237 -1.000000 0.000000
v -0.209458 -1.000000 0.068057
v -0.178175 -1.000000 0.129452
v -0.129452 -1.000000 0.178175
v -0.068057 -1.000000 0.209458
v -0.000000 -1.000000 0.220237
v 0.068057 -1.000000 0.209458
v 0.129452 -1.000000 0.178175
v 0.178175 -1.000000 0.129452
v 0.209458 -1.000000 0.068057
v 0.220237 -1.000000 0.000000
v 0.244623 -1.000000 -0.079483
v 0.208089 -1.000000 -0.151185
v 0.151185 -1.000000 -0.208089
v 0.079483 -1.000000 -0.244623
v -0.000000 -1.000000 -0.257212
v -0.079483 -1.000000 -0.244623
v -0.151185 -1.000000 -0.208089
v -0.208089 -1.000000 -0.151185
v -0.244623 -1.000000 -0.079483
v -0.257212 -1.000000 -0.000000
v -0.244623 -1.000000 0.079483
v -0.208089 -1.000000 0.151185
v -0.151185 -1.000000 0.208089
v -0.079483 -1.000000 0.244623
v -0.000000 -1.000000 0.257212
v 0.079483 -1.000000 0.244623
v 0.151185 -1.000000 0.208089
v 0.208089 -1.000000 0.151185
v 0.244623 -1.000000 0.079483
v 0.257212 -1.000000 -0.000000
v 0.951057 -1.000000 -0.309017
v 0.809018 -1.000000 -0.587786
v 0.587786 -1.000000 -0.809017
v 0.309017 -1.000000 -0.951057
v 0.000000 -1.000000 -1.000000
v -0.309017 -1.000000 -0.951057
v -0.587785 -1.000000 -0.809017
v -0.809017 -1.000000 -0.587785
v -0.951057 -1.000000 -0.309017
v -1.000000 -1.000000 0.000000
v -0.951057 -1.000000 0.309017
v -0.809017 -1.000000 0.587785
v -0.587785 -1.000000 0.809017
v -0.309017 -1.000000 0.951057
v -0.000000 -1.000000 1.000000
v 0.309017 -1.000000 0.951057
v 0.587785 -1.000000 0.809017
v 0.809017 -1.000000 0.587785
v 0.951057 -1.000000 0.309017
v 1.000000 -1.000000 0.000000
v 0.951057 1.000000 -0.309017
v 0.809018 1.000000 -0.587786
v 0.587786 1.000000 -0.809017
v 0.309017 1.000000 -0.951057
v 0.000000 1.000000 -1.000000
v -0.309017 1.000000 -0.951057
v -0.587785 1.000000 -0.809017
v -0.809017 1.000000 -0.587785
v -0.951057 1.000000 -0.309017
v -1.000000 1.000000 0.000000
v -0.951057 1.000000 0.309017
v -0.809017 1.000000 0.587785
v -0.587785 1.000000 0.809017
v -0.309017 1.000000 0.951057
v -0.000000 1.000000 1.000000
v 0.309017 1.000000 0.951057
v 0.587785 1.000000 0.809017
v 0.809017 1.000000 0.587785
v 0.951057 1.000000 0.309017
v 1.000000 1.000000 0.000000
v 0.244623 1.000000 -0.079483
v 0.208089 1.000000 -0.151185
v 0.151185 1.000000 -0.208089
v 0.079483 1.000000 -0.244623
v -0.000000 1.000000 -0.257212
v -0.079483 1.000000 -0.244623
v -0.151185 1.000000 -0.208089
v -0.208089 1.000000 -0.151185
v -0.244623 1.000000 -0.079483
v -0.257212 1.000000 -0.000000
v -0.244623 1.000000 0.079483
v -0.208089 1.000000 0.151185
v -0.151185 1.000000 0.208089
v -0.079483 1.000000 0.244623
v -0.000000 1.000000 0.257212
v 0.079483 1.000000 0.244623
v 0.151185 1.000000 0.208089
v 0.208089 1.000000 0.151185
v 0.244623 1.000000 0.079483
v 0.257212 1.000000 -0.000000
v 0.209458 1.000000 -0.068057
v 0.178175 1.000000 -0.129452
v 0.129452 1.000000 -0.178175
v 0.068057 1.000000 -0.209458
v -0.000000 1.000000 -0.220237
v -0.068057 1.000000 -0.209458
v -0.129452 1.000000 -0.178175
v -0.178175 1.000000 -0.129452
v -0.209458 1.000000 -0.068057
v -0.220237 1.000000 0.000000
v -0.209458 1.000000 0.068057
v -0.178175 1.000000 0.129452
v -0.129452 1.000000 0.178175
v -0.068057 1.000000 0.209458
v -0.000000 1.000000 0.220237
v 0.068057 1.000000 0.209458
v 0.129452 1.000000 0.178175
v 0.178175 1.000000 0.129452
v 0.209458 1.000000 0.068057
v 0.220237 1.000000 0.000000
vt 0.549534 0.140155
vt 0.542136 0.125636
vt 0.530614 0.114114
vt 0.516095 0.106716
vt 0.500000 0.104167
vt 0.483905 0.106716
vt 0.469386 0.114114
vt 0.457864 0.125636
vt 0.450466 0.140155
vt 0.447917 0.156250
vt 0.450466 0.172345
vt 0.457864 0.186864
vt 0.469386 0.198386
vt 0.483905 0.205784
vt 0.500000 0.208333
vt 0.516095 0.205784
vt 0.530614 0.198386
vt 0.542136 0.186864
vt 0.549534 0.172345
vt 0.552083 0.156250
vt 0.599068 0.124061
vt 0.584273 0.095022
vt 0.561228 0.071977
vt 0.532189 0.057182
vt 0.500000 0.052083
vt 0.467811 0.057182
vt 0.438772 0.071977
vt 0.415727 0.095022
vt 0.400932 0.124061
vt 0.395833 0.156250
vt 0.400932 0.188439
vt 0.415727 0.217478
vt 0.438772 0.240523
vt 0.467811 0.255318
vt 0.500000 0.260417
vt 0.532189 0.255318
vt 0.561228 0.240523
vt 0.584273 0.217478
vt 0.599068 0.188439
vt 0.604167 0.156250
vt 0.648603 0.107966
vt 0.626409 0.064408
vt 0.591842 0.029841
vt 0.548284 0.007647
vt 0.500000 -0.000000
vt 0.451716 0.007647
vt 0.408159 0.029841
vt 0.373591 0.064409
vt 0.351397 0.107966
vt 0.343750 0.156250
vt 0.351397 0.204534
vt 0.373591 0.248091
vt 0.408159 0.282659
vt 0.451716 0.304853
vt 0.500000 0.312500
vt 0.548284 0.304853
vt 0.591841 0.282659
vt 0.626409 0.248091
vt 0.648603 0.204534
vt 0.656250 0.156250
vt 0.375000 0.312500
vt 0.387500 0.312500
vt 0.400000 0.312500
vt 0.412500 0.312500
vt 0.425000 0.312500
vt 0.437500 0.312500
vt 0.450000 0.312500
vt 0.462500 0.312500
vt 0.475000 0.312500
vt 0.487500 0.312500
vt 0.500000 0.312500
vt 0.512500 0.312500
vt 0.525000 0.312500
vt 0.537500 0.312500
vt 0.550000 0.312500
vt 0.562500 0.312500
vt 0.575000 0.312500
vt 0.587500 0.312500
vt 0.600000 0.312500
vt 0.612500 0.312500
vt 0.625000 0.312500
vt 0.375000 0.688440
vt 0.387500 0.688440
vt 0.400000 0.688440
vt 0.412500 0.688440
vt 0.425000 0.688440
vt 0.437500 0.688440
vt 0.450000 0.688440
vt 0.462500 0.688440
vt 0.475000 0.688440
vt 0.487500 0.688440
vt 0.500000 0.688440
vt 0.512500 0.688440
vt 0.525000 0.688440
vt 0.537500 0.688440
vt 0.550000 0.688440
vt 0.562500 0.688440
vt 0.575000 0.688440
vt 0.587500 0.688440
vt 0.600000 0.688440
vt 0.612500 0.688440
vt 0.625000 0.688440
vt 0.648603 0.795466
vt 0.626409 0.751908
vt 0.591842 0.717341
vt 0.548284 0.695147
vt 0.500000 0.687500
vt 0.451716 0.695147
vt 0.408159 0.717341
vt 0.373591 0.751909
vt 0.351397 0.795466
vt 0.343750 0.843750
vt 0.351397 0.892034
vt 0.373591 0.935591
vt 0.408159 0.970159
vt 0.451716 0.992353
vt 0.500000 1.000000
vt 0.548284 0.992353
vt 0.591841 0.970159
vt 0.626409 0.935591
vt 0.648603 0.892034
vt 0.656250 0.843750
vt 0.599068 0.811561
vt 0.584273 0.782522
vt 0.561228 0.759477
vt 0.532189 0.744682
vt 0.500000 0.739583
vt 0.467811 0.744682
vt 0.438772 0.759477
vt 0.415727 0.782522
vt 0.400932 0.811561
vt 0.395833 0.843750
vt 0.400932 0.875939
vt 0.415727 0.904978
vt 0.438772 0.928023
vt 0.467811 0.942818
vt 0.500000 0.947917
vt 0.532189 0.942818
vt 0.561228 0.928023
vt 0.584273 0.904978
vt 0.599068 0.875939
vt 0.604167 0.843750
vt 0.549534 0.827655
vt 0.542136 0.813136
vt 0.530614 0.801614
vt 0.516095 0.794216
vt 0.500000 0.791667
vt 0.483905 0.794216
vt 0.469386 0.801614
vt 0.457864 0.813136
vt 0.450466 0.827655
vt 0.447917 0.843750
vt 0.450466 0.859845
vt 0.457864 0.874364
vt 0.469386 0.885886
vt 0.483905 0.893284
vt 0.500000 0.895833
vt 0.516095 0.893284
vt 0.530614 0.885886
vt 0.542136 0.874364
vt 0.549534 0.859845
vt 0.552083 0.843750
vn -0.000005 -1.000000 0.000002
vn -0.000004 -1.000000 0.000003
vn -0.000000 -1.000000 0.000000
vn -0.000000 -1.000000 0.000000
vn -0.000003 -1.000000 0.000004
vn -0.000000 -1.000000 0.000000
vn -0.000001 -1.000000 0.000004
vn -0.000000 -1.000000 0.000000
vn -0.000000 -1.000000 0.000005
vn 0.000000 -1.000000 0.000000
vn 0.000001 -1.000000 0.000006
vn 0.000000 -1.000000 0.000000
vn 0.000003 -1.000000 0.000005
vn 0.000000 -1.000000 0.000000
vn 0.000004 -1.000000 0.000004
vn 0.000000 -1.000000 0.000000
vn 0.000005 -1.000000 0.000003
vn 0.000000 -1.000000 0.000000
vn 0.000005 -1.000000 -0.000000
vn 0.000000 -1.000000 0.000000
vn 0.000005 -1.000000 -0.000002
vn 0.000000 -1.000000 -0.000000
vn 0.000004 -1.000000 -0.000003
vn 0.000000 -1.000000 -0.000000
vn 0.000003 -1.000000 -0.000002
vn 0.000000 -1.000000 0.000000
vn 0.000001 -1.000000 -0.000002
vn 0.000000 -1.000000 -0.000000
vn 0.000000 -1.000000 -0.000001
vn -0.000000 -1.000000 -0.000000
vn 0.000000 -1.000000 0.000001
vn -0.000000 -1.000000 -0.000000
vn 0.000000 -1.000000 0.000000
vn -0.000000 -1.000000 -0.000000
vn 0.000000 -1.000000 -0.000000
vn -0.000000 -1.000000 -0.000000
vn -0.000001 -1.000000 -0.000000
vn -0.000000 -1.000000 0.000000
vn -0.000004 -1.000000 0.000001
vn -0.000000 -1.000000 0.000000
vn 0.000000 -1.000000 0.000000
vn 0.000000 -1.000000 0.000000
vn 0.000000 -1.000000 0.000000
vn 0.000000 -1.000000 0.000000
vn 0.000000 -1.000000 0.000000
vn 0.000000 -1.000000 -0.000000
vn 0.000000 -1.000000 -0.000000
vn 0.000000 -1.000000 0.000000
vn 0.000000 -1.000000 0.000000
vn 0.000000 -1.000000 0.000000
vn 0.000000 -1.000000 0.000000
vn 0.000000 -1.000000 0.000000
vn 0.000000 -1.000000 0.000000
vn 0.000000 -1.000000 -0.000000
vn -0.000000 -1.000000 -0.000000
vn -0.000000 -1.000000 -0.000000
vn -0.000000 -1.000000 -0.000000
vn -0.000000 -1.000000 0.000000
vn -0.000000 -1.000000 0.000000
vn -0.000000 -1.000000 0.000000
vn 0.951057 0.000000 -0.309016
vn 0.809017 0.000000 -0.587785
vn 0.809017 0.000000 -0.587785
vn 0.951057 0.000000 -0.309016
vn 0.587785 0.000000 -0.809017
vn 0.587785 0.000000 -0.809017
vn 0.309017 0.000000 -0.951057
vn 0.309017 0.000000 -0.951057
vn -0.000000 0.000000 -1.000000
vn -0.000000 0.000000 -1.000000
vn -0.309017 0.000000 -0.951056
vn -0.309017 0.000000 -0.951056
vn -0.587785 0.000000 -0.809017
vn -0.587785 0.000000 -0.809017
vn -0.809017 0.000000 -0.587785
vn -0.809017 0.000000 -0.587785
vn -0.951057 0.000000 -0.309017
vn -0.951057 0.000000 -0.309017
vn -1.000000 0.000000 0.000000
vn -1.000000 0.000000 0.000000
vn -0.951057 0.000000 0.309017
vn -0.951057 0.000000 0.309017
vn -0.809017 0.000000 0.587785
vn -0.809017 0.000000 0.587785
vn -0.587785 0.000000 0.809017
vn -0.587785 0.000000 0.809017
vn -0.309017 0.000000 0.951057
vn -0.309017 0.000000 0.951057
vn 0.000000 0.000000 1.000000
vn 0.000000 0.000000 1.000000
vn 0.309017 0.000000 0.951057
vn 0.309017 0.000000 0.951057
vn 0.587785 0.000000 0.809017
vn 0.587785 0.000000 0.809017
vn 0.809017 0.000000 0.587785
vn 0.809017 0.000000 0.587785
vn 0.951057 0.000000 0.309017
vn 0.951057 0.000000 0.309017
vn 1.000000 0.000000 0.000001
vn 1.000000 0.000000 0.000001
vn 0.000000 1.000000 0.000000
vn 0.000000 1.000000 0.000000
vn -0.000000 1.000000 0.000000
vn -0.000000 1.000000 0.000000
vn 0.000000 1.000000 -0.000000
vn -0.000000 1.000000 -0.000000
vn 0.000000 1.000000 -0.000000
vn -0.000000 1.000000 -0.000000
vn 0.000000 1.000000 -0.000000
vn 0.000000 1.000000 0.000000
vn 0.000000 1.000000 -0.000000
vn 0.000000 1.000000 0.000000
vn 0.000000 1.000000 0.000000
vn 0.000000 1.000000 0.000000
vn 0.000000 1.000000 0.000000
vn 0.000000 1.000000 0.000000
vn 0.000000 1.000000 0.000000
vn 0.000000 1.000000 0.000000
vn 0.000000 1.000000 0.000000
vn 0.000000 1.000000 0.000000
vn 0.000000 1.000000 0.000000
vn 0.000000 1.000000 -0.000000
vn 0.000000 1.000000 0.000000
vn 0.000000 1.000000 -0.000000
vn 0.000000 1.000000 0.000000
vn 0.000000 1.000000 0.000000
vn 0.000000 1.000000 0.000000
vn 0.000000 1.000000 -0.000000
vn 0.000000 1.000000 -0.000000
vn -0.000000 1.000000 -0.000000
vn 0.000000 1.000000 -0.000000
vn -0.000000 1.000000 -0.000000
vn 0.000000 1.000000 0.000000
vn -0.000000 1.000000 -0.000000
vn 0.000000 1.000000 0.000000
vn -0.000000 1.000000 -0.000000
vn 0.000000 1.000000 0.000000
vn -0.000000 1.000000 -0.000000
vn 0.000000 1.000000 0.000000
vn -0.000000 1.000000 0.000000
vn -0.000005 1.000000 0.000005
vn -0.000006 1.000000 0.000003
vn -0.000004 1.000000 0.000006
vn -0.000002 1.000000 0.000005
vn -0.000000 1.000000 0.000005
vn 0.000002 1.000000 0.000006
vn 0.000004 1.000000 0.000005
vn 0.000005 1.000000 0.000004
vn 0.000006 1.000000 0.000002
vn 0.000006 1.000000 -0.000000
vn 0.000006 1.000000 -0.000003
vn 0.000005 1.000000 -0.000005
vn 0.000004 1.000000 -0.000006
vn 0.000002 1.000000 -0.000007
vn -0.000000 1.000000 -0.000006
vn -0.000002 1.000000 -0.000004
vn -0.000004 1.000000 -0.000005
vn -0.000005 1.000000 -0.000004
vn -0.000006 1.000000 -0.000002
vn -0.000006 1.000000 -0.000000
vn 0.453991 0.000000 0.891006
vn 0.453991 0.000000 0.891006
vn 0.453991 0.000000 0.891006
vn 0.453991 0.000000 0.891006
vn 0.707104 0.000000 0.707109
vn 0.707104 0.000000 0.707109
vn 0.707104 0.000000 0.707109
vn 0.707104 0.000000 0.707109
vn 0.891008 0.000000 0.453988
vn 0.891008 0.000000 0.453988
vn 0.891008 0.000000 0.453988
vn 0.891008 0.000000 0.453988
vn 0.987688 0.000000 0.156437
vn 0.987688 0.000000 0.156437
vn 0.987688 0.000000 0.156437
vn 0.987688 0.000000 0.156437
vn 0.987688 0.000000 -0.156437
vn 0.987688 0.000000 -0.156437
vn 0.987688 0.000000 -0.156437
vn 0.987688 0.000000 -0.156437
vn 0.891008 0.000000 -0.453988
vn 0.891008 0.000000 -0.453988
vn 0.891008 0.000000 -0.453988
vn 0.891008 0.000000 -0.453988
vn 0.707105 0.000000 -0.707108
vn 0.707105 0.000000 -0.707108
vn 0.707105 0.000000 -0.707108
vn 0.707105 0.000000 -0.707108
vn 0.453990 0.000000 -0.891007
vn 0.453990 0.000000 -0.891007
vn 0.453990 0.000000 -0.891007
vn 0.453990 0.000000 -0.891007
vn 0.156437 0.000000 -0.987688
vn 0.156437 0.000000 -0.987688
vn 0.156437 0.000000 -0.987688
vn 0.156437 0.000000 -0.987688
vn -0.156437 0.000000 -0.987688
vn -0.156437 0.000000 -0.987688
vn -0.156437 0.000000 -0.987688
vn -0.156437 0.000000 -0.987688
vn -0.453989 0.000000 -0.891007
vn -0.453989 0.000000 -0.891007
vn -0.453989 0.000000 -0.891007
vn -0.453989 0.000000 -0.891007
vn -0.707108 0.000000 -0.707106
vn -0.707108 0.000000 -0.707106
vn -0.707108 0.000000 -0.707106
vn -0.707108 0.000000 -0.707106
vn -0.891006 0.000000 -0.453991
vn -0.891006 0.000000 -0.453991
vn -0.891006 0.000000 -0.453991
vn -0.891006 0.000000 -0.453991
vn -0.987688 0.000000 -0.156434
vn -0.987688 0.000000 -0.156434
vn -0.987688 0.000000 -0.156434
vn -0.987688 0.000000 -0.156434
vn -0.987689 0.000000 0.156432
vn -0.987689 0.000000 0.156432
vn -0.987689 0.000000 0.156432
vn -0.987689 0.000000 0.156432
vn -0.891007 0.000000 0.453991
vn -0.891007 0.000000 0.453991
vn -0.891007 0.000000 0.453991
vn -0.891007 0.000000 0.453991
vn -0.707105 0.000000 0.707108
vn -0.707105 0.000000 0.707108
vn -0.707105 0.000000 0.707108
vn -0.707105 0.000000 0.707108
vn -0.453991 0.000000 0.891006
vn -0.453991 0.000000 0.891006
vn -0.453991 0.000000 0.891006
vn -0.453991 0.000000 0.891006
vn -0.156437 0.000000 0.987688
vn -0.156437 0.000000 0.987688
vn -0.156437 0.000000 0.987688
vn -0.156437 0.000000 0.987688
vn 0.156437 0.000000 0.987688
vn 0.156437 0.000000 0.987688
vn 0.156437 0.000000 0.987688
vn 0.156437 0.000000 0.987688
s 1
g pCylinder1
usemtl initialShadingGroup
f 1/1/1 2/2/2 22/22/3 21/21/4
f 2/2/2 3/3/5 23/23/6 22/22/3
f 3/3/5 4/4/7 24/24/8 23/23/6
f 4/4/7 5/5/9 25/25/10 24/24/8
f 5/5/9 6/6/11 26/26/12 25/25/10
f 6/6/11 7/7/13 27/27/14 26/26/12
f 7/7/13 8/8/15 28/28/16 27/27/14
f 8/8/15 9/9/17 29/29/18 28/28/16
f 9/9/17 10/10/19 30/30/20 29/29/18
f 10/10/19 11/11/21 31/31/22 30/30/20
f 11/11/21 12/12/23 32/32/24 31/31/22
f 12/12/23 13/13/25 33/33/26 32/32/24
f 13/13/25 14/14/27 34/34/28 33/33/26
f 14/14/27 15/15/29 35/35/30 34/34/28
f 15/15/29 16/16/31 36/36/32 35/35/30
f 16/16/31 17/17/33 37/37/34 36/36/32
f 17/17/33 18/18/35 38/38/36 37/37/34
f 18/18/35 19/19/37 39/39/38 38/38/36
f 19/19/37 20/20/39 40/40/40 39/39/38
f 20/20/39 1/1/1 21/21/4 40/40/40
f 21/21/4 22/22/3 42/42/41 41/41/42
f 22/22/3 23/23/6 43/43/43 42/42/41
f 23/23/6 24/24/8 44/44/44 43/43/43
f 24/24/8 25/25/10 45/45/45 44/44/44
f 25/25/10 26/26/12 46/46/46 45/45/45
f 26/26/12 27/27/14 47/47/47 46/46/46
f 27/27/14 28/28/16 48/48/48 47/47/47
f 28/28/16 29/29/18 49/49/49 48/48/48
f 29/29/18 30/30/20 50/50/50 49/49/49
f 30/30/20 31/31/22 51/51/51 50/50/50
f 31/31/22 32/32/24 52/52/52 51/51/51
f 32/32/24 33/33/26 53/53/53 52/52/52
f 33/33/26 34/34/28 54/54/54 53/53/53
f 34/34/28 35/35/30 55/55/55 54/54/54
f 35/35/30 36/36/32 56/56/56 55/55/55
f 36/36/32 37/37/34 57/57/57 56/56/56
f 37/37/34 38/38/36 58/58/58 57/57/57
f 38/38/36 39/39/38 59/59/59 58/58/58
f 39/39/38 40/40/40 60/60/60 59/59/59
f 40/40/40 21/21/4 41/41/42 60/60/60
s 2
f 41/61/61 42/62/62 62/83/63 61/82/64
f 42/62/62 43/63/65 63/84/66 62/83/63
f 43/63/65 44/64/67 64/85/68 63/84/66
f 44/64/67 45/65/69 65/86/70 64/85/68
f 45/65/69 46/66/71 66/87/72 65/86/70
f 46/66/71 47/67/73 67/88/74 66/87/72
f 47/67/73 48/68/75 68/89/76 67/88/74
f 48/68/75 49/69/77 69/90/78 68/89/76
f 49/69/77 50/70/79 70/91/80 69/90/78
f 50/70/79 51/71/81 71/92/82 70/91/80
f 51/71/81 52/72/83 72/93/84 71/92/82
f 52/72/83 53/73/85 73/94/86 72/93/84
f 53/73/85 54/74/87 74/95/88 73/94/86
f 54/74/87 55/75/89 75/96/90 74/95/88
f 55/75/89 56/76/91 76/97/92 75/96/90
f 56/76/91 57/77/93 77/98/94 76/97/92
f 57/77/93 58/78/95 78/99/96 77/98/94
f 58/78/95 59/79/97 79/100/98 78/99/96
f 59/79/97 60/80/99 80/101/100 79/100/98
f 60/80/99 41/81/61 61/102/64 80/101/100
s 3
f 61/121/101 62/120/102 82/140/103 81/141/104
f 62/120/102 63/119/105 83/139/106 82/140/103
f 63/119/105 64/118/107 84/138/108 83/139/106
f 64/118/107 65/117/109 85/137/110 84/138/108
f 65/117/109 66/116/111 86/136/112 85/137/110
f 66/116/111 67/115/113 87/135/114 86/136/112
f 67/115/113 68/114/115 88/134/116 87/135/114
f 68/114/115 69/113/117 89/133/118 88/134/116
f 69/113/117 70/112/119 90/132/120 89/133/118
f 70/112/119 71/111/121 91/131/122 90/132/120
f 71/111/121 72/110/123 92/130/124 91/131/122
f 72/110/123 73/109/125 93/129/126 92/130/124
f 73/109/125 74/108/127 94/128/128 93/129/126
f 74/108/127 75/107/129 95/127/130 94/128/128
f 75/107/129 76/106/131 96/126/132 95/127/130
f 76/106/131 77/105/133 97/125/134 96/126/132
f 77/105/133 78/104/135 98/124/136 97/125/134
f 78/104/135 79/103/137 99/123/138 98/124/136
f 79/103/137 80/122/139 100/142/140 99/123/138
f 80/122/139 61/121/101 81/141/104 100/142/140
f 81/141/104 82/140/103 102/160/141 101/161/142
f 82/140/103 83/139/106 103/159/143 102/160/141
f 83/139/106 84/138/108 104/158/144 103/159/143
f 84/138/108 85/137/110 105/157/145 104/158/144
f 85/137/110 86/136/112 106/156/146 105/157/145
f 86/136/112 87/135/114 107/155/147 106/156/146
f 87/135/114 88/134/116 108/154/148 107/155/147
f 88/134/116 89/133/118 109/153/149 108/154/148
f 89/133/118 90/132/120 110/152/150 109/153/149
f 90/132/120 91/131/122 111/151/151 110/152/150
f 91/131/122 92/130/124 112/150/152 111/151/151
f 92/130/124 93/129/126 113/149/153 112/150/152
f 93/129/126 94/128/128 114/148/154 113/149/153
f 94/128/128 95/127/130 115/147/155 114/148/154
f 95/127/130 96/126/132 116/146/156 115/147/155
f 96/126/132 97/125/134 117/145/157 116/146/156
f 97/125/134 98/124/136 118/144/158 117/145/157
f 98/124/136 99/123/138 119/143/159 118/144/158
f 99/123/138 100/142/140 120/162/160 119/143/159
f 100/142/140 81/141/104 101/161/142 120/162/160
s off
f 7/7/161 6/6/162 106/156/163 107/155/164
f 8/8/165 7/7/166 107/155/167 108/154/168
f 9/9/169 8/8/170 108/154/171 109/153/172
f 10/10/173 9/9/174 109/153/175 110/152/176
f 11/11/177 10/10/178 110/152/179 111/151/180
f 12/12/181 11/11/182 111/151/183 112/150/184
f 13/13/185 12/12/186 112/150/187 113/149/188
f 14/14/189 13/13/190 113/149/191 114/148/192
f 15/15/193 14/14/194 114/148/195 115/147/196
f 16/16/197 15/15/198 115/147/199 116/146/200
f 17/17/201 16/16/202 116/146/203 117/145/204
f 18/18/205 17/17/206 117/145/207 118/144/208
f 19/19/209 18/18/210 118/144/211 119/143/212
f 20/20/213 19/19/214 119/143/215 120/162/216
f 1/1/217 20/20/218 120/162/219 101/161/220
f 2/2/221 1/1/222 101/161/223 102/160/224
f 3/3/225 2/2/226 102/160/227 103/159/228
f 4/4/229 3/3/230 103/159/231 104/158/232
f 5/5/233 4/4/234 104/158/235 105/157/236
f 6/6/237 5/5/238 105/157/239 106/156/240
